<svg width="169" height="196" viewBox="0 0 169 196" fill="none" xmlns="http://www.w3.org/2000/svg">
<g clip-path="url(#clip0_53_178)">
<path opacity="0.18" d="M22.2257 154.32C20.0382 143.608 24.518 131.99 20.6309 121.773C17.4249 113.366 9.27408 107.918 4.48967 100.297C-1.64066 90.5348 -1.47692 77.1911 4.88919 67.5828C11.6221 57.4342 23.6404 52.3501 33.0979 44.6667C39.2642 39.6514 44.4089 33.4444 50.7815 28.7007C57.1542 23.9571 65.4131 20.7358 73.0498 22.939C77.9456 24.3532 81.9866 27.807 86.6859 29.7745C97.2928 34.2202 109.314 30.5766 120.786 29.6861C130.8 28.9156 140.863 30.3125 150.288 33.7816C156.258 35.9815 162.166 39.2225 165.643 44.5488C169.301 50.1535 169.743 57.4244 168.054 63.8998C166.364 70.3753 162.745 76.1796 158.74 81.5419C152.518 89.8506 144.79 99.5638 148.14 109.369C150.262 115.589 156.287 119.517 160.296 124.716C168.974 135.997 166.39 154.225 154.928 162.648C150.275 166.066 144.449 168.053 140.821 172.545C138.813 175.03 137.641 178.11 135.581 180.562C130.263 186.943 120.806 187.437 112.501 187.372C102.421 187.293 92.3436 187.136 82.2683 186.9C73.397 186.694 61.1494 188.452 52.6842 185.79C40.1517 181.842 24.8815 167.313 22.2257 154.32Z" fill="#68E1FD"/>
<path opacity="0.19" d="M37.9511 177.364C33.0389 178.798 27.2066 181.882 27.6127 186.982C28.0286 192.2 34.5257 194.25 39.7293 194.734C49.6386 195.651 59.6135 195.569 69.5655 195.484L111.197 195.134C120.809 195.052 130.486 194.963 139.914 193.104C142.9 192.515 146.008 191.663 148.166 189.503C150.324 187.342 151.094 183.535 149.044 181.282C147.134 179.187 143.824 179.282 141.322 177.947C138.525 176.454 137.032 173.363 134.772 171.14C129.811 166.305 122.017 166.305 115.085 166.603L69.6867 168.597C64.0475 168.842 56.2602 167.746 50.9584 169.906C46.4392 171.713 43.5869 177.364 37.9511 177.364Z" fill="url(#paint0_linear_53_178)"/>
<path d="M121.215 48.7327H55.3596C51.0805 48.7327 47.6116 52.2005 47.6116 56.4783V182.081C47.6116 186.359 51.0805 189.827 55.3596 189.827H121.215C125.494 189.827 128.963 186.359 128.963 182.081V56.4783C128.963 52.2005 125.494 48.7327 121.215 48.7327Z" fill="url(#paint1_linear_53_178)"/>
<path d="M124.254 48.7327H58.3986C54.1195 48.7327 50.6506 52.2005 50.6506 56.4783V182.081C50.6506 186.359 54.1195 189.827 58.3986 189.827H124.254C128.533 189.827 132.002 186.359 132.002 182.081V56.4783C132.002 52.2005 128.533 48.7327 124.254 48.7327Z" fill="#68E1FD"/>
<path d="M128.108 59.8306V164.996C128.108 166.788 127.396 168.506 126.129 169.774C124.861 171.041 123.142 171.753 121.349 171.753H61.3033C59.511 171.752 57.7923 171.04 56.5249 169.773C55.2575 168.506 54.5451 166.787 54.5442 164.996V59.8306C54.5451 58.0388 55.2575 56.3206 56.5249 55.0536C57.7923 53.7866 59.511 53.0745 61.3033 53.0736H77.4314V55.3259C77.4314 55.7932 77.5235 56.256 77.7024 56.6877C77.8813 57.1195 78.1435 57.5118 78.474 57.8422C78.8046 58.1726 79.197 58.4348 79.6289 58.6136C80.0608 58.7924 80.5236 58.8845 80.9911 58.8845H104.952C105.897 58.8845 106.802 58.5096 107.47 57.8422C108.137 57.1748 108.512 56.2697 108.512 55.3259V53.0867H121.349C123.139 53.0867 124.857 53.7968 126.124 55.0611C127.391 56.3255 128.105 58.0408 128.108 59.8306Z" fill="url(#paint2_linear_53_178)"/>
<path opacity="0.19" d="M105.152 54.8512C104.153 55.7941 102.68 56.3506 102.185 57.6339C101.776 58.6946 102.202 59.8731 102.349 60.9993C102.676 63.5299 101.606 65.995 100.895 68.447C100.193 70.8704 99.8414 73.3817 99.8504 75.9046C99.8504 77.142 99.9257 78.4679 99.274 79.5057C98.6224 80.5434 96.89 81.005 96.1696 80C96.021 79.7775 95.9104 79.5319 95.8421 79.2732C94.673 75.5248 95.3771 71.4752 95.328 67.5369C95.2788 63.5986 94.0508 59.1726 90.5534 57.3622C89.7866 64.2076 88.5724 70.9954 86.9184 77.6822C86.5647 79.1226 85.7919 80.8741 84.2986 80.8413C84.0235 78.72 83.9155 76.5855 83.8074 74.4445L82.5826 50.0912C82.5499 49.4365 82.5237 48.7097 82.8282 48.127C83.2834 47.2235 84.3412 46.8175 85.3138 46.536C89.0076 45.4383 92.826 44.8145 96.6772 44.6798C99.2544 44.5881 103.053 45.0923 104.903 47.1744C106.629 49.1059 107.147 52.9656 105.152 54.8512Z" fill="url(#paint3_linear_53_178)"/>
<path d="M98.7894 184.556H85.5463C84.4728 184.556 83.4433 184.13 82.6842 183.371C81.9251 182.612 81.4987 181.583 81.4987 180.51C81.497 179.978 81.6004 179.45 81.8031 178.958C82.0058 178.466 82.3037 178.018 82.6798 177.641C83.0558 177.265 83.5026 176.966 83.9946 176.762C84.4865 176.558 85.0138 176.453 85.5463 176.454H98.7894C99.3205 176.454 99.8464 176.558 100.337 176.761C100.828 176.965 101.274 177.262 101.649 177.638C102.025 178.013 102.323 178.459 102.526 178.95C102.729 179.44 102.834 179.966 102.834 180.497C102.836 181.029 102.733 181.557 102.531 182.049C102.328 182.541 102.031 182.989 101.655 183.366C101.279 183.743 100.833 184.043 100.341 184.247C99.8491 184.451 99.3219 184.556 98.7894 184.556Z" fill="url(#paint4_linear_53_178)"/>
<path d="M81.2884 104.341C82.2602 100.225 79.7103 96.1009 75.5931 95.1294C71.4759 94.158 67.3506 96.7071 66.3788 100.823C65.4071 104.939 67.957 109.063 72.0741 110.034C76.1913 111.006 80.3167 108.457 81.2884 104.341Z" stroke="white" stroke-width="0.313158" stroke-miterlimit="10"/>
<path d="M100.98 104.34C101.952 100.224 99.4023 96.1001 95.2851 95.1287C91.168 94.1573 87.0426 96.7063 86.0708 100.822C85.0991 104.938 87.649 109.062 91.7661 110.034C95.8833 111.005 100.009 108.456 100.98 104.34Z" stroke="white" stroke-width="0.313158" stroke-miterlimit="10"/>
<path d="M120.669 104.34C121.641 100.224 119.091 96.0995 114.974 95.1281C110.856 94.1567 106.731 96.7057 105.759 100.822C104.788 104.938 107.338 109.062 111.455 110.033C115.572 111.004 119.697 108.455 120.669 104.34Z" stroke="white" stroke-width="0.313158" stroke-miterlimit="10"/>
<path d="M81.2892 124.627C82.261 120.511 79.7111 116.387 75.5939 115.415C71.4767 114.444 67.3513 116.993 66.3796 121.109C65.4078 125.225 67.9577 129.349 72.0749 130.32C76.1921 131.291 80.3175 128.742 81.2892 124.627Z" stroke="white" stroke-width="0.313158" stroke-miterlimit="10"/>
<path d="M100.978 124.626C101.95 120.51 99.3999 116.386 95.2827 115.414C91.1655 114.443 87.0402 116.992 86.0684 121.108C85.0967 125.224 87.6466 129.348 91.7637 130.319C95.8809 131.291 100.006 128.742 100.978 124.626Z" stroke="white" stroke-width="0.313158" stroke-miterlimit="10"/>
<path d="M101.701 158.832C105.746 154.788 105.746 148.232 101.701 144.188C97.656 140.144 91.0977 140.144 87.0526 144.188C83.0075 148.232 83.0075 154.788 87.0526 158.832C91.0977 162.876 97.656 162.876 101.701 158.832Z" fill="#FF354E"/>
<path d="M120.67 124.625C121.642 120.509 119.092 116.385 114.974 115.414C110.857 114.442 106.732 116.991 105.76 121.107C104.788 125.223 107.338 129.347 111.455 130.319C115.573 131.29 119.698 128.741 120.67 124.625Z" stroke="white" stroke-width="0.313158" stroke-miterlimit="10"/>
<path d="M88.0056 150.997C87.9341 150.996 87.8639 150.978 87.8011 150.943C87.7384 150.909 87.685 150.86 87.6456 150.8C87.6062 150.74 87.582 150.672 87.5751 150.601C87.5682 150.53 87.5789 150.458 87.6061 150.392C87.9598 149.495 88.916 146.692 94.2702 146.692C99.3264 146.692 100.466 149.488 100.839 150.385C100.868 150.451 100.88 150.523 100.874 150.595C100.868 150.667 100.844 150.736 100.805 150.797C100.766 150.857 100.712 150.907 100.649 150.942C100.586 150.977 100.515 150.996 100.443 150.997H98.4193C98.3424 150.997 98.2668 150.977 98.2005 150.938C98.1343 150.898 98.0798 150.842 98.0428 150.775C97.7775 150.284 97.1749 147.923 94.1753 147.923C91.7323 147.923 90.8252 149.233 90.3209 150.699C90.2918 150.785 90.2368 150.86 90.1635 150.913C90.0902 150.967 90.0022 150.996 89.9115 150.997H88.0056Z" fill="white"/>
<path d="M90.1145 150.595H87.5144C86.8452 150.595 86.3027 151.137 86.3027 151.806V152.313C86.3027 152.982 86.8452 153.525 87.5144 153.525H90.1145C90.7837 153.525 91.3262 152.982 91.3262 152.313V151.806C91.3262 151.137 90.7837 150.595 90.1145 150.595Z" fill="white"/>
<path d="M100.679 150.595H98.0788C97.4096 150.595 96.8671 151.137 96.8671 151.806V152.313C96.8671 152.982 97.4096 153.525 98.0788 153.525H100.679C101.348 153.525 101.891 152.982 101.891 152.313V151.806C101.891 151.137 101.348 150.595 100.679 150.595Z" fill="white"/>
<path d="M85.4087 26.7365C84.888 25.8788 82.9035 21.2039 82.1766 19.5343L79.6092 13.6776C79.4789 13.9471 79.4113 14.2426 79.4113 14.5419C79.4113 14.8412 79.4789 15.1366 79.6092 15.4061C77.902 15.4877 76.202 15.6813 74.5202 15.9856C73.9406 16.0903 73.2332 16.3457 73.1841 16.9317C73.1481 17.3311 73.4526 17.6716 73.7539 17.9367C74.7765 18.8252 75.9989 19.453 77.3168 19.7667C78.0471 19.9402 78.8854 20.0646 79.3177 20.6768C79.5306 21.0379 79.6562 21.4437 79.6845 21.8619C80.0831 24.5506 80.6352 27.2143 81.3382 29.84C81.5871 30.7763 81.9768 31.837 82.897 32.1316C83.4865 32.3247 84.125 32.1316 84.7112 31.9352C86.4927 31.3361 88.2774 30.6257 89.7314 29.4373C91.4768 28.0034 97.5908 20.2709 94.5649 18.4507C93.0848 17.557 89.0765 22.3268 88.2905 23.2991C87.0952 24.7919 86.8627 25.4761 85.4087 26.7365Z" fill="url(#paint5_linear_53_178)"/>
<path d="M120.642 36.7803C120.014 37.126 119.319 37.3336 118.605 37.3892C118.146 37.4514 117.678 37.4907 117.213 37.5103C114.42 37.6249 111.561 36.9833 109.406 35.2384C108.26 34.3086 107.333 33.0941 106.056 32.3509C105.076 31.8311 104.003 31.5096 102.899 31.4048C102.002 31.2837 101.085 31.2281 100.191 31.12C98.1934 30.881 95.9993 30.187 95.0725 28.3996C94.4176 27.1686 94.5453 25.6922 94.745 24.3172C95.1249 21.6982 95.7504 19.0793 95.8617 16.4112C95.924 14.9707 95.8159 13.4648 95.043 12.2437C94.5256 11.4318 93.7528 10.8229 93.147 10.0765C91.4506 7.98134 92.623 4.66179 94.8531 3.4145C95.2769 3.22188 95.6796 2.98601 96.0549 2.71065C96.5101 2.31125 96.759 1.72853 97.1585 1.27021C98.2752 -0.0196384 100.24 -0.049102 101.927 0.0229199L104.825 0.147321C105.761 0.186606 106.842 0.307734 107.34 1.09998C107.723 1.70889 107.651 2.59279 108.214 3.04129C108.414 3.18432 108.635 3.29481 108.869 3.36867C109.924 3.76265 110.876 4.39247 111.65 5.21005C112.425 6.02762 113.003 7.01134 113.339 8.0861C114.174 10.8557 113.316 13.9232 114.148 16.6894C114.209 16.9473 114.331 17.1866 114.505 17.3868C114.751 17.5797 115.031 17.7261 115.33 17.8189C117.151 18.6209 117.714 20.9518 117.567 22.9324C117.485 24.0488 117.259 25.224 117.672 26.252C117.97 26.9984 118.566 27.5811 119.132 28.1508C120.327 29.3457 121.506 30.6519 121.998 32.2691C122.489 33.8863 122.079 35.8931 120.642 36.7803Z" fill="#3F3D56"/>
<path d="M117.213 37.5103C114.42 37.6249 111.561 36.9833 109.406 35.2384C108.26 34.3086 107.333 33.0941 106.056 32.351C105.076 31.8311 104.003 31.5096 102.899 31.4048C101.724 30.0954 100.561 28.763 99.4345 27.4076C98.5634 26.36 97.7054 25.2764 97.1847 24.0161C96.664 22.7557 96.5298 21.4756 96.3628 20.1662C95.9207 16.516 95.4917 12.7315 96.6346 9.23846C96.7784 8.73601 96.9993 8.25892 97.2895 7.82421C99.2544 5.10702 104.468 5.53261 106.18 8.26289C106.619 9.04363 106.923 9.89239 107.081 10.7738C107.394 12.2002 107.599 13.648 107.697 15.105C107.775 16.3195 107.821 17.6454 108.617 18.5653C109.115 19.1382 109.845 19.4688 110.382 20.009C112.439 22.0682 110.811 25.9017 112.471 28.2981C112.899 28.8513 113.413 29.3322 113.994 29.7222C115.32 30.7043 116.745 31.6667 117.57 33.0974C118.395 34.528 118.405 36.4693 117.213 37.5103Z" fill="#25233A"/>
<path d="M90.3241 39.324C90.3241 39.324 78.1781 41.5468 77.8277 44.7976C77.4773 48.0484 80.0283 74.9683 80.0283 74.9683H82.8086C82.8086 74.9683 87.8026 60.2365 86.9413 55.9054C86.0801 51.5742 85.2057 50.3695 85.2057 50.3695C85.2057 50.3695 90.2652 52.8674 95.0496 47.3577C99.834 41.848 97.6989 38.1651 97.6989 38.1651L90.3241 39.324Z" fill="#3F3D56"/>
<path d="M97.1553 38.6627C97.1553 38.6627 85.5725 42.9382 85.7821 46.1923C85.9916 49.4463 93.1208 75.5314 93.1208 75.5314L95.8617 75.0534C95.8617 75.0534 98.2556 59.6931 96.664 55.5616C95.0725 51.4302 94.0181 50.4154 94.0181 50.4154C94.0181 50.4154 100.718 53.4927 104.654 47.3479C107.988 42.1361 102.467 36.8523 99.0677 38.0145L97.1553 38.6627Z" fill="#25233A"/>
<path d="M90.3241 39.324V32.4852C90.3241 32.4852 88.3134 28.7531 87.986 26.8314C87.796 25.7184 89.2009 22.3039 90.8186 20.9846C91.9451 20.0679 92.7835 18.4343 94.2244 18.3885L101.295 18.1757L104.759 27.9969L103.538 39.3829C103.538 39.3829 100.568 37.8443 90.3241 39.324Z" fill="#68E1FD"/>
<path d="M97.5974 37.7591C97.5155 37.8933 97.116 38.5121 97.1553 38.6627C97.1946 38.8133 99.0383 38.8624 99.6998 38.9278C100.826 39.0391 102.411 39.2552 103.538 39.3796C104.301 35.6377 103.921 33.2708 104.478 31.251C104.581 31.0135 104.634 30.757 104.632 30.498C104.566 30.0462 102.952 27.7252 102.549 27.5517C101.239 26.9853 101.239 28.9659 101.088 29.6992C100.538 32.5965 99.1267 35.2711 97.5974 37.7591Z" fill="url(#paint6_linear_53_178)"/>
<path d="M92.7671 6.80607C92.7671 6.80607 91.1297 12.2634 92.2497 13.1996C93.3697 14.1359 94.3456 14.2669 94.5748 14.7318C94.804 15.1966 95.3804 17.1707 94.5748 18.4671C93.7692 19.7635 94.1523 21.6066 95.328 20.9846C96.5036 20.3626 99.1169 18.454 99.1169 18.454L100.623 12.977C100.623 12.977 103.033 7.23492 102.66 5.97781C102.287 4.7207 96.4152 1.35204 92.7671 6.80607Z" fill="url(#paint7_linear_53_178)"/>
<path d="M99.8602 8.23014C100.037 8.91763 99.7226 9.66404 99.9159 10.3482C100.155 11.1929 101.072 11.6577 101.927 11.8509C102.781 12.044 103.708 12.1128 104.438 12.6071C105.264 13.1636 105.768 14.244 106.731 14.4568C107.213 14.5268 107.705 14.4796 108.165 14.3193C109.226 14.0443 110.369 13.7169 111.037 12.8461C111.384 12.3661 111.591 11.7996 111.636 11.2092C111.872 8.89798 110.287 6.71768 108.312 5.49004C106.338 4.26239 104.006 3.78443 101.763 3.19843C100.518 2.87106 97.5711 1.94787 96.8834 3.62402C96.3955 4.81238 97.5089 6.97304 98.9007 5.85015C98.7664 6.77334 99.6473 7.39207 99.8602 8.23014Z" fill="#3F3D56"/>
<path d="M102.722 13.311C102.722 13.311 101.272 14.483 100.391 14.1621C99.5098 13.8413 98.0001 15.799 98.0001 15.799C98.0001 15.799 97.5351 16.5912 98.5634 16.9775C99.136 17.1812 99.7435 17.2685 100.35 17.2342C100.957 17.1999 101.551 17.0447 102.097 16.7778C103.977 15.8252 106.135 13.0949 106.94 12.2896C108.712 10.4857 108.316 6.39685 106.308 6.15787C104.301 5.91889 104.632 8.1974 104.704 8.30216C104.84 8.39841 104.987 8.47758 105.142 8.53787C105.259 8.5901 105.362 8.66657 105.447 8.76214C105.531 8.85771 105.594 8.97019 105.631 9.09202C105.668 9.21386 105.679 9.34224 105.662 9.46856C105.646 9.59488 105.603 9.71622 105.535 9.82444C104.795 11.0095 103.472 13 102.722 13.311Z" fill="url(#paint8_linear_53_178)"/>
<path d="M78.2239 78.0783C78.1712 78.179 78.1474 78.2923 78.1552 78.4057C78.1758 78.4813 78.2176 78.5495 78.2755 78.6023C78.3335 78.655 78.4054 78.6902 78.4826 78.7036C78.6376 78.7271 78.7957 78.7193 78.9477 78.6807C79.9525 78.5271 80.9027 78.1241 81.7115 77.5087C82.1127 77.1979 82.4326 76.7947 82.6442 76.3335C82.8557 75.8724 82.9526 75.3669 82.9265 74.8602C82.9265 74.7784 80.1855 74.8602 79.8842 75.0763C79.1081 75.623 78.5776 77.2271 78.2239 78.0783Z" fill="url(#paint9_linear_53_178)"/>
<path d="M77.0417 79.8953L78.2239 78.0783C78.2239 78.0783 80.942 79.4173 82.5139 76.5822C83.3194 75.1254 82.9265 74.8701 82.9265 74.8701C82.9265 74.8701 83.8794 75.0829 84.0333 76.8049C84.1246 77.833 84.1246 78.8671 84.0333 79.8953L83.3227 80.2881L82.9396 78.7298C82.9396 78.7298 81.1254 81.1982 80.5719 82.0232C80.2837 82.452 78.9346 82.7761 77.7196 82.9889C77.4903 83.0277 77.2547 83.0027 77.0386 82.9165C76.8226 82.8304 76.6344 82.6864 76.4947 82.5005C76.3551 82.3146 76.2693 82.0938 76.2468 81.8623C76.2243 81.6309 76.2659 81.3977 76.3672 81.1884C76.5473 80.8152 76.7699 80.3896 77.0417 79.8953Z" fill="url(#paint10_linear_53_178)"/>
<path d="M91.7257 78.242C91.6787 78.3443 91.6639 78.4585 91.6832 78.5694C91.7076 78.6391 91.7514 78.7004 91.8093 78.7462C91.8673 78.792 91.9371 78.8204 92.0106 78.828C92.1577 78.8427 92.3061 78.826 92.4462 78.7789C93.3818 78.5753 94.2512 78.1396 94.9743 77.512C95.3318 77.1956 95.6078 76.7977 95.7788 76.3521C95.9498 75.9064 96.0108 75.4261 95.9567 74.9519C95.9403 74.8799 93.3795 75.1156 93.1077 75.3349C92.3807 75.9078 91.991 77.4301 91.7257 78.242Z" fill="url(#paint11_linear_53_178)"/>
<path d="M90.7073 80.0295L91.7257 78.242C91.7257 78.242 94.3455 79.342 95.6554 76.5855C96.3268 75.168 95.9436 74.9486 95.9436 74.9486C95.9436 74.9486 96.8507 75.096 97.0963 76.7034C97.2422 77.6641 97.3025 78.6358 97.2764 79.6071L96.6215 80.0196L96.1696 78.5759C96.1696 78.5759 94.6108 81.005 94.136 81.8104C93.8903 82.2294 92.6492 82.6157 91.5162 82.8874C91.2998 82.9412 91.0727 82.9333 90.8607 82.8646C90.6486 82.7959 90.4601 82.669 90.3165 82.4986C90.1729 82.3281 90.08 82.1208 90.0484 81.9002C90.0167 81.6796 90.0476 81.4545 90.1375 81.2506C90.2947 80.9232 90.4813 80.5107 90.7073 80.0295Z" fill="url(#paint12_linear_53_178)"/>
<path d="M99.4214 21.9896C99.4214 21.9896 104.638 37.5234 110.605 31.6929C111.761 30.5635 107.169 14.0705 106.927 13.6874C106.685 13.3044 107.255 10.7411 106.685 10.2664C106.251 9.9229 105.773 9.63987 105.264 9.42505C105.264 9.42505 104.458 9.556 104.487 10.1027C104.517 10.6494 103.715 11.1372 103.551 11.5235C103.387 11.9098 102.532 13.0949 102.67 13.586C102.859 14.1418 103.113 14.6736 103.426 15.1704C103.551 15.2981 105.673 25.0374 105.673 25.0374C105.673 25.0374 103.659 17.5635 101.295 18.1626C98.9302 18.7617 99.4214 21.9896 99.4214 21.9896Z" fill="url(#paint13_linear_53_178)"/>
</g>
<defs>
<linearGradient id="paint0_linear_53_178" x1="27.593" y1="181.014" x2="150.252" y2="181.014" gradientUnits="userSpaceOnUse">
<stop stop-color="#183866"/>
<stop offset="1" stop-color="#1A7FC1"/>
</linearGradient>
<linearGradient id="paint1_linear_53_178" x1="91.205" y1="119.114" x2="247.558" y2="110.221" gradientUnits="userSpaceOnUse">
<stop stop-color="#68E1FD"/>
<stop offset="0.3" stop-color="#58A0BA"/>
<stop offset="0.55" stop-color="#4C718A"/>
<stop offset="0.68" stop-color="#485F77"/>
<stop offset="0.69" stop-color="#475C74"/>
<stop offset="0.87" stop-color="#41455E"/>
<stop offset="0.99" stop-color="#3F3D56"/>
</linearGradient>
<linearGradient id="paint2_linear_53_178" x1="88.9455" y1="224.869" x2="93.6091" y2="4.59624" gradientUnits="userSpaceOnUse">
<stop offset="0.01" stop-opacity="0"/>
<stop offset="0.93" stop-opacity="0.89"/>
<stop offset="0.98"/>
</linearGradient>
<linearGradient id="paint3_linear_53_178" x1="90.2062" y1="62.7475" x2="114.082" y2="62.7475" gradientUnits="userSpaceOnUse">
<stop stop-color="#183866"/>
<stop offset="1" stop-color="#1A7FC1"/>
</linearGradient>
<linearGradient id="paint4_linear_53_178" x1="91.5522" y1="147.521" x2="93.3358" y2="243.532" gradientUnits="userSpaceOnUse">
<stop offset="0.01" stop-opacity="0"/>
<stop offset="0.93" stop-opacity="0.89"/>
<stop offset="0.98"/>
</linearGradient>
<linearGradient id="paint5_linear_53_178" x1="73.1972" y1="22.9455" x2="95.4065" y2="22.9455" gradientUnits="userSpaceOnUse">
<stop stop-color="#ECC4D7"/>
<stop offset="0.42" stop-color="#EFD4D1"/>
<stop offset="1" stop-color="#F2EAC9"/>
</linearGradient>
<linearGradient id="paint6_linear_53_178" x1="87.9532" y1="30.1706" x2="116.763" y2="37.2919" gradientUnits="userSpaceOnUse">
<stop offset="0.01" stop-opacity="0"/>
<stop offset="0.93" stop-opacity="0.89"/>
<stop offset="0.98"/>
</linearGradient>
<linearGradient id="paint7_linear_53_178" x1="91.8535" y1="12.4532" x2="102.709" y2="12.4532" gradientUnits="userSpaceOnUse">
<stop stop-color="#ECC4D7"/>
<stop offset="0.42" stop-color="#EFD4D1"/>
<stop offset="1" stop-color="#F2EAC9"/>
</linearGradient>
<linearGradient id="paint8_linear_53_178" x1="100.008" y1="9.52113" x2="108.392" y2="16.164" gradientUnits="userSpaceOnUse">
<stop stop-color="#68E1FD"/>
<stop offset="0.3" stop-color="#58A0BA"/>
<stop offset="0.55" stop-color="#4C718A"/>
<stop offset="0.68" stop-color="#485F77"/>
<stop offset="0.69" stop-color="#475C74"/>
<stop offset="0.87" stop-color="#41455E"/>
<stop offset="0.99" stop-color="#3F3D56"/>
</linearGradient>
<linearGradient id="paint9_linear_53_178" x1="78.1486" y1="76.7852" x2="82.9396" y2="76.7852" gradientUnits="userSpaceOnUse">
<stop stop-color="#ECC4D7"/>
<stop offset="0.42" stop-color="#EFD4D1"/>
<stop offset="1" stop-color="#F2EAC9"/>
</linearGradient>
<linearGradient id="paint10_linear_53_178" x1="77.9358" y1="76.9816" x2="82.2637" y2="81.0064" gradientUnits="userSpaceOnUse">
<stop stop-color="#68E1FD"/>
<stop offset="0.3" stop-color="#58A0BA"/>
<stop offset="0.55" stop-color="#4C718A"/>
<stop offset="0.68" stop-color="#485F77"/>
<stop offset="0.69" stop-color="#475C74"/>
<stop offset="0.87" stop-color="#41455E"/>
<stop offset="0.99" stop-color="#3F3D56"/>
</linearGradient>
<linearGradient id="paint11_linear_53_178" x1="91.657" y1="76.8932" x2="95.9698" y2="76.8932" gradientUnits="userSpaceOnUse">
<stop stop-color="#ECC4D7"/>
<stop offset="0.42" stop-color="#EFD4D1"/>
<stop offset="1" stop-color="#F2EAC9"/>
</linearGradient>
<linearGradient id="paint12_linear_53_178" x1="91.6897" y1="77.4661" x2="95.4514" y2="80.6199" gradientUnits="userSpaceOnUse">
<stop stop-color="#68E1FD"/>
<stop offset="0.3" stop-color="#58A0BA"/>
<stop offset="0.55" stop-color="#4C718A"/>
<stop offset="0.68" stop-color="#485F77"/>
<stop offset="0.69" stop-color="#475C74"/>
<stop offset="0.87" stop-color="#41455E"/>
<stop offset="0.99" stop-color="#3F3D56"/>
</linearGradient>
<linearGradient id="paint13_linear_53_178" x1="99.3788" y1="21.2105" x2="110.791" y2="21.2105" gradientUnits="userSpaceOnUse">
<stop stop-color="#ECC4D7"/>
<stop offset="0.42" stop-color="#EFD4D1"/>
<stop offset="1" stop-color="#F2EAC9"/>
</linearGradient>
<clipPath id="clip0_53_178">
<rect width="169" height="195.533" fill="white"/>
</clipPath>
</defs>
</svg>
