<svg width="247" height="149" viewBox="0 0 247 149" fill="none" xmlns="http://www.w3.org/2000/svg">
<path d="M173.965 49.1816H129.194L106.808 87.9547L129.194 126.728H173.965L196.351 87.9547L173.965 49.1816Z" fill="#D9EBFF"/>
<path d="M105.084 14.7656H76.2375L61.8147 39.747L76.2375 64.7283H105.084L119.507 39.747L105.084 14.7656Z" fill="#D9EBFF"/>
<path d="M75.9411 70.9458H49.115L35.7019 94.1779L49.115 117.41H75.9411L89.3545 94.1779L75.9411 70.9458Z" fill="#D9EBFF"/>
<path d="M171.24 114.377H113.566C113.468 114.377 113.374 114.338 113.304 114.269C113.235 114.199 113.196 114.105 113.196 114.007V27.4477C113.196 27.3495 113.235 27.2552 113.304 27.1858C113.374 27.1163 113.468 27.0772 113.566 27.0772H163.78C163.878 27.0772 163.973 27.1163 164.042 27.1858C164.111 27.2552 164.151 27.3495 164.151 27.4477V43.9257C164.151 44.024 164.112 44.1182 164.042 44.1877C163.973 44.2572 163.878 44.2962 163.78 44.2962C163.682 44.2962 163.588 44.2572 163.518 44.1877C163.449 44.1182 163.41 44.024 163.41 43.9257V27.8182H113.937V113.636H171.24C171.338 113.636 171.433 113.675 171.502 113.745C171.572 113.814 171.611 113.909 171.611 114.007C171.611 114.105 171.572 114.199 171.502 114.269C171.433 114.338 171.338 114.377 171.24 114.377H171.24Z" fill="#A9C0FF"/>
<path d="M91.3747 100.948V124.69H110.581V100.948H91.3747ZM103.903 110.88C103.903 111.709 103.573 112.505 102.987 113.091C102.4 113.677 101.605 114.007 100.775 114.007C99.9461 114.007 99.1508 113.677 98.5643 113.091C97.9779 112.505 97.6484 111.709 97.6484 110.88V107.753H103.903V110.88Z" fill="#4D76B8"/>
<path d="M91.3747 111.31H97.6814C97.6606 111.168 97.6496 111.024 97.6484 110.88V107.753H103.903V110.88C103.901 111.024 103.89 111.168 103.87 111.31H110.581V100.948H91.3747V111.31Z" fill="#4469A0"/>
<path d="M141.235 51.4282H60.7215C58.5388 51.4282 56.7695 53.1975 56.7695 55.3802V103.801C56.7695 105.984 58.5388 107.753 60.7215 107.753H141.235C143.417 107.753 145.187 105.984 145.187 103.801V55.3802C145.187 53.1975 143.417 51.4282 141.235 51.4282Z" fill="#4D76B8"/>
<path d="M139.564 55.1395H62.3917C61.4368 55.1395 60.6627 55.9136 60.6627 56.8685V102.313C60.6627 103.268 61.4368 104.042 62.3917 104.042H139.564C140.519 104.042 141.293 103.268 141.293 102.313V56.8685C141.293 55.9136 140.519 55.1395 139.564 55.1395Z" fill="white"/>
<path d="M139.878 55.1395H62.0777C61.7024 55.1395 61.3425 55.2886 61.0772 55.5539C60.8118 55.8193 60.6627 56.1792 60.6627 56.5545V58.9236H141.293V56.5545C141.293 56.1792 141.144 55.8193 140.879 55.5539C140.614 55.2886 140.254 55.1395 139.878 55.1395Z" fill="#A9C0FF"/>
<path d="M185.322 112.737H155.101V110.575C155.101 110.444 155.153 110.318 155.246 110.226C155.338 110.133 155.464 110.081 155.595 110.081H184.828C184.959 110.081 185.085 110.133 185.177 110.226C185.27 110.318 185.322 110.444 185.322 110.575V112.737Z" fill="#4469A0"/>
<path d="M155.101 112.737H185.322V124.196C185.322 124.327 185.27 124.452 185.177 124.545C185.085 124.638 184.959 124.69 184.828 124.69H155.595C155.464 124.69 155.338 124.638 155.246 124.545C155.153 124.452 155.101 124.327 155.101 124.196V112.737Z" fill="#4D76B8"/>
<path d="M160.345 108.48H180.078C180.209 108.48 180.334 108.532 180.427 108.625C180.52 108.718 180.572 108.843 180.572 108.974V110.081H159.851V108.974C159.851 108.843 159.903 108.718 159.996 108.625C160.089 108.532 160.214 108.48 160.345 108.48Z" fill="#4D76B8"/>
<path d="M161.512 90.9089H178.911C179.108 90.9089 179.296 90.987 179.435 91.1259C179.574 91.2649 179.652 91.4534 179.652 91.6499V108.48H160.771V91.6499C160.771 91.4534 160.849 91.2649 160.988 91.1259C161.127 90.987 161.315 90.9089 161.512 90.9089Z" fill="#92B1EF"/>
<path d="M181.798 97.1406C184.929 97.1406 187.467 94.6021 187.467 91.4708C187.467 88.3394 184.929 85.8009 181.798 85.8009C178.666 85.8009 176.128 88.3394 176.128 91.4708C176.128 94.6021 178.666 97.1406 181.798 97.1406Z" fill="white"/>
<path d="M180.777 94.848L177.48 91.8355C177.432 91.7918 177.393 91.739 177.366 91.6803C177.338 91.6215 177.322 91.5579 177.319 91.493C177.316 91.4282 177.326 91.3634 177.348 91.3023C177.37 91.2413 177.404 91.1852 177.448 91.1372C177.492 91.0893 177.545 91.0505 177.603 91.0229C177.662 90.9954 177.726 90.9798 177.791 90.9769C177.856 90.974 177.92 90.9839 177.981 91.0061C178.042 91.0283 178.098 91.0622 178.146 91.1061L180.775 93.5081L185.448 89.2169C185.544 89.1283 185.672 89.0817 185.803 89.0873C185.934 89.0929 186.057 89.1502 186.146 89.2467C186.234 89.3432 186.281 89.471 186.275 89.6019C186.27 89.7328 186.212 89.8561 186.116 89.9447L180.777 94.848Z" fill="#4D76B8"/>
<path d="M166.705 81.8167H166.211V88.4571H166.705V81.8167Z" fill="#4D76B8"/>
<path d="M170.458 78.4114H169.964V88.4571H170.458V78.4114Z" fill="#4D76B8"/>
<path d="M174.212 82.668H173.718V88.4571H174.212V82.668Z" fill="#4D76B8"/>
<path d="M168.177 100.495H164.806V108.48H168.177V100.495Z" fill="#A9C0FF"/>
<path d="M155.667 75.8666H126.92C126.647 75.8666 126.426 76.0877 126.426 76.3606V95.3869C126.426 95.6597 126.647 95.8809 126.92 95.8809H155.667C155.94 95.8809 156.161 95.6597 156.161 95.3869V76.3606C156.161 76.0877 155.94 75.8666 155.667 75.8666Z" fill="#92B1EF"/>
<path d="M156.161 78.9005H126.426V83.094H156.161V78.9005Z" fill="#4D76B8"/>
<path d="M89.1473 65.8292H70.9285C70.6557 65.8292 70.4345 66.0504 70.4345 66.3232V78.4065C70.4345 78.6793 70.6557 78.9005 70.9285 78.9005H89.1473C89.4201 78.9005 89.6413 78.6793 89.6413 78.4065V66.3232C89.6413 66.0504 89.4201 65.8292 89.1473 65.8292Z" fill="#92B1EF"/>
<path d="M115.384 67.4166H95.8218V68.1576H115.384V67.4166Z" fill="#456BA3"/>
<path d="M125.264 72.1175H95.8218V72.8585H125.264V72.1175Z" fill="#456BA3"/>
<path d="M120.324 76.8183H95.8218V77.5593H120.324V76.8183Z" fill="#456BA3"/>
<path d="M83.4564 90.0122H70.9285C70.6557 90.0122 70.4345 90.2334 70.4345 90.5062V94.4977C70.4345 94.7705 70.6557 94.9917 70.9285 94.9917H83.4564C83.7292 94.9917 83.9504 94.7705 83.9504 94.4977V90.5062C83.9504 90.2334 83.7292 90.0122 83.4564 90.0122Z" fill="#92B1EF"/>
<path d="M101.596 90.0122H89.0682C88.7954 90.0122 88.5742 90.2334 88.5742 90.5062V94.4977C88.5742 94.7705 88.7954 94.9917 89.0682 94.9917H101.596C101.869 94.9917 102.09 94.7705 102.09 94.4977V90.5062C102.09 90.2334 101.869 90.0122 101.596 90.0122Z" fill="#92B1EF"/>
<path d="M119.83 90.0122H107.302C107.029 90.0122 106.808 90.2334 106.808 90.5062V94.4977C106.808 94.7705 107.029 94.9917 107.302 94.9917H119.83C120.103 94.9917 120.324 94.7705 120.324 94.4977V90.5062C120.324 90.2334 120.103 90.0122 119.83 90.0122Z" fill="#92B1EF"/>
<g opacity="0.61">
<path d="M147.084 88.7228C148.189 88.7228 149.084 87.8271 149.084 86.7221C149.084 85.6172 148.189 84.7215 147.084 84.7215C145.979 84.7215 145.083 85.6172 145.083 86.7221C145.083 87.8271 145.979 88.7228 147.084 88.7228Z" fill="#A9C0FF"/>
</g>
<g opacity="0.61">
<path d="M149.618 88.7228C150.723 88.7228 151.618 87.8271 151.618 86.7221C151.618 85.6172 150.723 84.7215 149.618 84.7215C148.513 84.7215 147.617 85.6172 147.617 86.7221C147.617 87.8271 148.513 88.7228 149.618 88.7228Z" fill="#A9C0FF"/>
</g>
<path d="M142.144 88.7228H130.149C129.876 88.7228 129.655 88.944 129.655 89.2168V92.3636C129.655 92.6365 129.876 92.8576 130.149 92.8576H142.144C142.416 92.8576 142.638 92.6365 142.638 92.3636V89.2168C142.638 88.944 142.416 88.7228 142.144 88.7228Z" fill="#A9C0FF"/>
<g opacity="0.28">
<path d="M83.1645 34.1741H47.2819C47.0091 34.1741 46.7879 34.3953 46.7879 34.6681V62.1802C46.7879 62.453 47.0091 62.6742 47.2819 62.6742H83.1645C83.4374 62.6742 83.6585 62.453 83.6585 62.1802V34.6681C83.6585 34.3953 83.4374 34.1741 83.1645 34.1741Z" fill="#6299E8"/>
</g>
<path d="M78.3117 29.8107H42.4291C42.1563 29.8107 41.9351 30.0319 41.9351 30.3047V57.8167C41.9351 58.0896 42.1563 58.3107 42.4291 58.3107H78.3117C78.5845 58.3107 78.8057 58.0896 78.8057 57.8167V30.3047C78.8057 30.0319 78.5845 29.8107 78.3117 29.8107Z" fill="white"/>
<path d="M78.3118 58.6813H42.429C42.1998 58.681 41.9801 58.5899 41.818 58.4278C41.656 58.2657 41.5648 58.046 41.5645 57.8168V30.3048C41.5648 30.0756 41.656 29.8558 41.818 29.6938C41.9801 29.5317 42.1998 29.4405 42.429 29.4403H78.3118C78.541 29.4405 78.7607 29.5317 78.9228 29.6938C79.0848 29.8558 79.176 30.0756 79.1763 30.3048V57.8168C79.176 58.046 79.0848 58.2657 78.9228 58.4278C78.7607 58.5899 78.541 58.681 78.3118 58.6813ZM42.429 30.1813C42.3963 30.1813 42.3649 30.1943 42.3417 30.2175C42.3186 30.2406 42.3056 30.272 42.3055 30.3048V57.8168C42.3056 57.8495 42.3186 57.8809 42.3417 57.9041C42.3649 57.9272 42.3963 57.9403 42.429 57.9403H78.3118C78.3445 57.9403 78.3759 57.9272 78.3991 57.9041C78.4222 57.8809 78.4352 57.8495 78.4353 57.8168V30.3048C78.4352 30.272 78.4222 30.2406 78.3991 30.2175C78.3759 30.1943 78.3445 30.1813 78.3118 30.1813H42.429Z" fill="#4D76B8"/>
<path d="M70.5683 34.1741H53.0609C52.7881 34.1741 52.5669 34.3953 52.5669 34.6681V46.1289C52.5669 46.4018 52.7881 46.6229 53.0609 46.6229H70.5683C70.8411 46.6229 71.0623 46.4018 71.0623 46.1289V34.6681C71.0623 34.3953 70.8411 34.1741 70.5683 34.1741Z" fill="#A9C0FF"/>
<path d="M71.0623 36.0612H52.5669V38.6695H71.0623V36.0612Z" fill="#D9EBFF"/>
<path d="M68.1279 40.3195C68.1376 40.1782 68.0912 40.0388 67.9987 39.9315C67.9062 39.8242 67.7751 39.7577 67.6339 39.7465H52.5669V46.0499C52.5572 46.1912 52.6037 46.3307 52.6962 46.438C52.7887 46.5453 52.9197 46.6117 53.0609 46.623H69.8756L68.1279 40.3195Z" fill="#4D76B8"/>
<path d="M66.3001 41.4508H48.7928C48.52 41.4508 48.2988 41.6719 48.2988 41.9448V53.4056C48.2988 53.6784 48.52 53.8996 48.7928 53.8996H66.3001C66.573 53.8996 66.7941 53.6784 66.7941 53.4056V41.9448C66.7941 41.6719 66.573 41.4508 66.3001 41.4508Z" fill="#92B1EF"/>
<path d="M65.2232 50.2242H49.7511V52.1805H65.2232V50.2242Z" fill="#4D76B8"/>
<g opacity="0.61">
<path d="M51.3221 46.7712C52.1078 46.7712 52.7448 46.1342 52.7448 45.3484C52.7448 44.5627 52.1078 43.9257 51.3221 43.9257C50.5363 43.9257 49.8993 44.5627 49.8993 45.3484C49.8993 46.1342 50.5363 46.7712 51.3221 46.7712Z" fill="#A9C0FF"/>
</g>
<g opacity="0.61">
<path d="M53.1005 46.7712C53.8862 46.7712 54.5232 46.1342 54.5232 45.3484C54.5232 44.5627 53.8862 43.9257 53.1005 43.9257C52.3147 43.9257 51.6777 44.5627 51.6777 45.3484C51.6777 46.1342 52.3147 46.7712 53.1005 46.7712Z" fill="#A9C0FF"/>
</g>
<path d="M187.173 66.5045H153.366C153.283 66.5045 153.203 66.4716 153.144 66.413C153.085 66.3545 153.052 66.2749 153.052 66.1918L152.937 45.4452L182.403 48.168H187.173C187.256 48.168 187.336 48.2011 187.395 48.2601C187.454 48.319 187.487 48.399 187.487 48.4824V66.1901C187.487 66.2735 187.454 66.3535 187.395 66.4124C187.336 66.4714 187.256 66.5045 187.173 66.5045Z" fill="#4D76B8"/>
<path d="M182.403 43.036V48.1686H155.634C155.574 48.1686 155.513 48.1662 155.453 48.1637C152.015 47.9883 152.134 42.7914 155.577 42.7223H182.087C182.129 42.7221 182.17 42.73 182.208 42.7457C182.246 42.7614 182.281 42.7844 182.31 42.8136C182.34 42.8427 182.363 42.8773 182.379 42.9155C182.395 42.9537 182.403 42.9946 182.403 43.036Z" fill="#4469A0"/>
<path d="M184.843 50.9977H155.209C154.936 50.9977 154.715 51.2189 154.715 51.4917V53.5598C154.715 53.8326 154.936 54.0538 155.209 54.0538H184.843C185.115 54.0538 185.337 53.8326 185.337 53.5598V51.4917C185.337 51.2189 185.115 50.9977 184.843 50.9977Z" fill="#92B1EF"/>
<path d="M187.489 56.8835H153.016V62.4297H187.489V56.8835Z" fill="#92B1EF"/>
<path d="M169.782 29.5868V48.1686H155.732V29.5868C155.732 29.4895 155.751 29.3931 155.789 29.3031C155.826 29.2131 155.88 29.1314 155.949 29.0625C156.018 28.9937 156.1 28.9391 156.19 28.9019C156.28 28.8648 156.376 28.8457 156.473 28.8458H169.041C169.138 28.8457 169.235 28.8648 169.324 28.9019C169.414 28.9391 169.496 28.9937 169.565 29.0625C169.634 29.1314 169.688 29.2131 169.726 29.3031C169.763 29.3931 169.782 29.4895 169.782 29.5868Z" fill="#779DD8"/>
<path d="M167.765 31.6097V48.1686H157.688V31.6097C157.688 31.5124 157.707 31.416 157.744 31.326C157.781 31.236 157.836 31.1543 157.905 31.0855C157.973 31.0166 158.055 30.9621 158.145 30.9249C158.235 30.8877 158.332 30.8686 158.429 30.8687H167.024C167.122 30.8686 167.218 30.8877 167.308 30.9249C167.398 30.9621 167.48 31.0166 167.549 31.0855C167.618 31.1543 167.672 31.2361 167.709 31.326C167.747 31.416 167.766 31.5124 167.765 31.6097Z" fill="#A9C0FF"/>
<path d="M162.49 39.3135C163.881 39.3135 165.009 38.1855 165.009 36.7941C165.009 35.4026 163.881 34.2747 162.49 34.2747C161.098 34.2747 159.97 35.4026 159.97 36.7941C159.97 38.1855 161.098 39.3135 162.49 39.3135Z" fill="#779DD8"/>
<path d="M181.181 48.1686H166.586L165.057 42.7223L162.784 34.638C162.758 34.5442 162.75 34.4462 162.762 34.3495C162.773 34.2528 162.804 34.1593 162.851 34.0743C162.899 33.9894 162.963 33.9148 163.04 33.8547C163.116 33.7946 163.204 33.7502 163.298 33.7241L175.396 30.3229C175.49 30.2964 175.588 30.2887 175.685 30.3002C175.781 30.3117 175.875 30.3422 175.96 30.39C176.045 30.4377 176.119 30.5017 176.179 30.5784C176.24 30.655 176.284 30.7428 176.31 30.8366L179.649 42.7223L181.181 48.1686Z" fill="#92B1EF"/>
<path d="M179.089 48.1686H168.618L167.089 42.7223L165.215 36.0558C165.188 35.962 165.181 35.864 165.192 35.7672C165.204 35.6705 165.234 35.577 165.282 35.4921C165.33 35.4072 165.394 35.3325 165.47 35.2724C165.547 35.2123 165.635 35.1679 165.729 35.1418L174.003 32.8151C174.097 32.7886 174.195 32.7809 174.292 32.7924C174.388 32.8039 174.482 32.8344 174.567 32.8822C174.652 32.9299 174.726 32.9939 174.786 33.0706C174.846 33.1473 174.891 33.235 174.917 33.3289L177.557 42.7223L179.089 48.1686Z" fill="#A9C0FF"/>
<path d="M171.24 42.2664C172.632 42.2664 173.76 41.1384 173.76 39.747C173.76 38.3556 172.632 37.2276 171.24 37.2276C169.849 37.2276 168.721 38.3556 168.721 39.747C168.721 41.1384 169.849 42.2664 171.24 42.2664Z" fill="#92B1EF"/>
<path d="M129.655 47.6757C129.557 47.6757 129.463 47.6366 129.393 47.5671C129.324 47.4977 129.285 47.4034 129.285 47.3052V22.0309H62.1852V27.3689C62.1852 27.4671 62.1461 27.5614 62.0766 27.6308C62.0072 27.7003 61.9129 27.7394 61.8147 27.7394C61.7164 27.7394 61.6222 27.7003 61.5527 27.6308C61.4832 27.5614 61.4442 27.4671 61.4442 27.3689V21.6604C61.4442 21.5621 61.4832 21.4679 61.5527 21.3984C61.6222 21.3289 61.7164 21.2899 61.8147 21.2899H129.655C129.753 21.2899 129.848 21.3289 129.917 21.3984C129.987 21.4679 130.026 21.5621 130.026 21.6604V47.3052C130.026 47.4034 129.987 47.4977 129.917 47.5671C129.848 47.6366 129.753 47.6757 129.655 47.6757Z" fill="#A9C0FF"/>
<path d="M40.8825 89.7849V82.0172C40.8825 81.289 40.5932 80.5906 40.0782 80.0756C39.5633 79.5607 38.8649 79.2714 38.1366 79.2714C37.4084 79.2714 36.7099 79.5607 36.195 80.0756C35.68 80.5906 35.3907 81.289 35.3907 82.0172V89.7849H40.8825Z" fill="#4D76B8"/>
<path d="M64.408 79.2714C65.1362 79.2714 65.8346 79.5607 66.3496 80.0756C66.8645 80.5906 67.1538 81.289 67.1538 82.0172V121.944C67.1538 122.672 67.4431 123.37 67.9581 123.885C68.473 124.4 69.1714 124.69 69.8997 124.69C70.6279 124.69 71.3264 124.4 71.8413 123.885C72.3563 123.37 72.6456 122.672 72.6456 121.944H46.3742C46.3742 122.672 46.0849 123.37 45.57 123.885C45.055 124.4 44.3566 124.69 43.6284 124.69C42.9001 124.69 42.2017 124.4 41.6867 123.885C41.1718 123.37 40.8825 122.672 40.8825 121.944V82.0172C40.8825 81.289 40.5932 80.5906 40.0782 80.0756C39.5633 79.5607 38.8649 79.2714 38.1366 79.2714H64.408Z" fill="#92B1EF"/>
<path d="M69.8997 124.69C70.6279 124.69 71.3264 124.4 71.8413 123.885C72.3563 123.37 72.6456 122.672 72.6456 121.944H46.3742C46.3742 122.672 46.0849 123.37 45.57 123.885C45.055 124.4 44.3566 124.69 43.6283 124.69H69.8997Z" fill="#A9C0FF"/>
<path d="M58.1369 84.8258H43.6283V85.5668H58.1369V84.8258Z" fill="#456BA3"/>
<path d="M58.1369 88.3523H43.6283V89.0933H58.1369V88.3523Z" fill="#456BA3"/>
<path d="M58.1369 91.8789H43.6283V92.6199H58.1369V91.8789Z" fill="#456BA3"/>
<path d="M58.1369 95.4054H43.6283V96.1464H58.1369V95.4054Z" fill="#456BA3"/>
<path d="M58.1369 98.9319H43.6283V99.6729H58.1369V98.9319Z" fill="#456BA3"/>
<path d="M58.1369 102.458H43.6283V103.199H58.1369V102.458Z" fill="#456BA3"/>
<path d="M58.1369 105.985H43.6283V106.726H58.1369V105.985Z" fill="#456BA3"/>
<path d="M58.1369 109.511H43.6283V110.252H58.1369V109.511Z" fill="#456BA3"/>
<path d="M64.7936 84.8258H60.6626V85.5668H64.7936V84.8258Z" fill="#456BA3"/>
<path d="M64.7936 88.3523H60.6626V89.0933H64.7936V88.3523Z" fill="#456BA3"/>
<path d="M64.7936 91.8789H60.6626V92.6199H64.7936V91.8789Z" fill="#456BA3"/>
<path d="M64.7936 95.4054H60.6626V96.1464H64.7936V95.4054Z" fill="#456BA3"/>
<path d="M64.7936 98.9319H60.6626V99.6729H64.7936V98.9319Z" fill="#456BA3"/>
<path d="M64.7936 102.458H60.6626V103.199H64.7936V102.458Z" fill="#456BA3"/>
<path d="M64.7936 105.985H60.6626V106.726H64.7936V105.985Z" fill="#456BA3"/>
<path d="M64.7936 109.511H60.6626V110.252H64.7936V109.511Z" fill="#456BA3"/>
<path d="M45.8519 119.751C46.1863 119.107 46.525 118.465 46.8678 117.826L46.9958 117.586C47.0426 117.495 47.1021 117.411 47.1726 117.338C47.3253 117.187 47.526 117.095 47.7396 117.077C47.9573 117.058 48.1749 117.115 48.3545 117.24C48.4451 117.303 48.5238 117.381 48.5866 117.472C48.6546 117.57 48.6866 117.636 48.7361 117.718L49.0067 118.19C49.0727 118.309 49.1786 118.4 49.3058 118.449C49.427 118.495 49.5606 118.498 49.6837 118.456C49.8067 118.415 49.9116 118.332 49.9802 118.222C49.9963 118.195 50.0104 118.166 50.0224 118.137L50.0703 118.014L50.1685 117.761L50.3669 117.255L50.7636 116.242L50.8627 115.989L50.8876 115.926L50.9266 115.844C50.952 115.787 50.984 115.734 51.0219 115.684C51.1707 115.477 51.39 115.33 51.6389 115.272C51.8866 115.214 52.1466 115.241 52.3768 115.349C52.6092 115.463 52.7937 115.656 52.8977 115.893L52.9345 115.978L52.9574 116.042L53.0033 116.17L53.0951 116.426L53.2788 116.937L53.646 117.961L53.8272 118.464C53.8604 118.558 53.9263 118.636 54.0128 118.684C54.0991 118.732 54.1991 118.749 54.2964 118.732C54.3937 118.715 54.4823 118.666 54.5477 118.592C54.5786 118.553 54.6033 118.51 54.6206 118.463C54.647 118.395 54.6786 118.297 54.7075 118.215L54.8842 117.701L55.2375 116.673L55.9603 114.622L56.1411 114.11L56.2314 113.853C56.2554 113.795 56.2823 113.735 56.3097 113.677C56.3425 113.621 56.3808 113.566 56.4183 113.512C56.5865 113.306 56.8206 113.165 57.0809 113.113C57.3411 113.06 57.6115 113.1 57.8462 113.224C58.0808 113.35 58.262 113.556 58.3565 113.805C58.3753 113.861 58.4022 113.937 58.4103 113.976L58.4425 114.108L58.5068 114.372L58.764 115.429C58.9376 116.132 59.1061 116.837 59.2696 117.544L59.3941 118.073C59.4185 118.19 59.4825 118.295 59.5752 118.371C59.6749 118.443 59.7958 118.48 59.919 118.477C60.0421 118.473 60.1606 118.429 60.2558 118.35C60.2805 118.332 60.302 118.31 60.3194 118.285C60.3589 118.235 60.3894 118.179 60.4095 118.119L60.4261 118.072L60.4502 117.994C60.499 117.829 60.5903 117.679 60.715 117.56C60.8397 117.44 60.9934 117.356 61.1609 117.315C61.3284 117.273 61.5038 117.277 61.6696 117.324C61.8355 117.372 61.986 117.462 62.1061 117.586C62.1409 117.629 62.1774 117.672 62.2082 117.718C62.2345 117.765 62.2633 117.815 62.2855 117.86L62.3961 118.109L62.6173 118.605C62.6708 118.752 62.7736 118.875 62.908 118.954C63.0424 119.033 63.2001 119.063 63.354 119.038C63.5153 119.011 63.6625 118.93 63.7712 118.807L64.1554 118.422L64.9302 117.658L64.238 118.498L63.8886 118.915C63.764 119.079 63.5859 119.195 63.3852 119.242C63.1844 119.289 62.9735 119.265 62.7888 119.173C62.6006 119.077 62.4496 118.922 62.3592 118.731L62.1036 118.251L61.9758 118.011L61.9164 117.919C61.8944 117.891 61.8689 117.867 61.8467 117.841C61.7449 117.749 61.6152 117.696 61.4787 117.688C61.3423 117.68 61.2073 117.72 61.0961 117.799C60.9912 117.877 60.9177 117.99 60.8889 118.117L60.8526 118.253C60.8397 118.31 60.8195 118.365 60.7924 118.417C60.7418 118.525 60.6719 118.623 60.586 118.706C60.4097 118.872 60.1817 118.972 59.9404 118.99C59.699 119.007 59.4589 118.941 59.2604 118.803C59.0612 118.658 58.9179 118.449 58.855 118.211L58.7095 117.687C58.5143 116.989 58.3228 116.29 58.1352 115.59L57.8525 114.54L57.7818 114.278L57.7465 114.146C57.7342 114.097 57.725 114.09 57.7162 114.059C57.6795 113.966 57.61 113.89 57.5208 113.845C57.4313 113.801 57.3297 113.788 57.2319 113.808C57.1341 113.828 57.0456 113.879 56.9802 113.954C56.9685 113.976 56.954 113.996 56.9406 114.017C56.9314 114.041 56.9209 114.066 56.9091 114.089L56.8207 114.346L56.644 114.86L55.9369 116.916L55.5753 117.942L55.3946 118.454C55.3625 118.543 55.3388 118.618 55.2998 118.718C55.2529 118.842 55.1858 118.956 55.1012 119.057C54.9271 119.259 54.6883 119.394 54.4256 119.439C54.163 119.485 53.8927 119.437 53.661 119.306C53.4292 119.173 53.2522 118.963 53.1614 118.712C53.0938 118.526 53.0441 118.364 52.9847 118.189L52.3038 116.151C52.2645 116.051 52.1913 115.969 52.0972 115.919C51.9971 115.871 51.8844 115.856 51.7752 115.875C51.6663 115.895 51.5686 115.954 51.5011 116.041C51.4818 116.063 51.4659 116.087 51.4541 116.113L51.4321 116.152L51.4047 116.214L51.2955 116.463L50.8591 117.459L50.6408 117.957L50.5307 118.205L50.4725 118.333C50.4474 118.386 50.4181 118.437 50.3851 118.486C50.2514 118.68 50.0542 118.822 49.8275 118.886C49.6008 118.951 49.3587 118.934 49.1429 118.839C48.9327 118.746 48.7619 118.582 48.6597 118.376L48.417 117.889C48.3642 117.741 48.2769 117.608 48.1622 117.5C48.0471 117.408 47.9031 117.359 47.7556 117.363C47.6039 117.364 47.4576 117.419 47.3423 117.518C47.2841 117.572 47.2334 117.633 47.1917 117.701L47.0437 117.929C46.6513 118.539 46.254 119.146 45.8519 119.751Z" fill="#456BA3"/>
<path d="M79.8925 21.6604L77.4795 19.2473L75.0664 21.6604L77.4795 24.0734L79.8925 21.6604Z" fill="#A9C0FF"/>
<path d="M85.1092 21.6604L82.6961 19.2473L80.2831 21.6604L82.6961 24.0734L85.1092 21.6604Z" fill="#A9C0FF"/>
<path d="M90.3258 21.6604L87.9128 19.2473L85.4997 21.6604L87.9128 24.0734L90.3258 21.6604Z" fill="#A9C0FF"/>
<path d="M141.326 27.4477L138.913 25.0347L136.5 27.4477L138.913 29.8608L141.326 27.4477Z" fill="#A9C0FF"/>
<path d="M146.543 27.4477L144.13 25.0347L141.717 27.4477L144.13 29.8608L146.543 27.4477Z" fill="#A9C0FF"/>
<path d="M151.76 27.4477L149.347 25.0347L146.934 27.4477L149.347 29.8608L151.76 27.4477Z" fill="#A9C0FF"/>
<path d="M134.987 114.007L133.009 112.029L131.031 114.007L133.009 115.985L134.987 114.007Z" fill="#A9C0FF"/>
<path d="M139.263 114.007L137.285 112.029L135.307 114.007L137.285 115.985L139.263 114.007Z" fill="#A9C0FF"/>
<path d="M143.539 114.007L141.561 112.029L139.583 114.007L141.561 115.985L143.539 114.007Z" fill="#A9C0FF"/>
<path d="M113.566 38.1483L115.503 36.2115L113.566 34.2747L111.629 36.2115L113.566 38.1483Z" fill="#A9C0FF"/>
<path d="M113.566 42.3354L115.503 40.3985L113.566 38.4617L111.629 40.3985L113.566 42.3354Z" fill="#A9C0FF"/>
<path d="M113.566 46.5224L115.503 44.5856L113.566 42.6488L111.629 44.5856L113.566 46.5224Z" fill="#A9C0FF"/>
<path d="M198.479 124.69H31.1319V126.913H198.479V124.69Z" fill="#456BA3"/>
<path d="M110.581 118.713H91.3747V122.78H110.581V118.713Z" fill="#456BA3"/>
<path d="M115.027 124.813H86.9287V121.982C86.9287 121.654 87.0588 121.34 87.2904 121.108C87.522 120.877 87.8362 120.747 88.1637 120.747H113.792C114.12 120.747 114.434 120.877 114.666 121.108C114.897 121.34 115.027 121.654 115.027 121.982V124.813Z" fill="#4D76B8"/>
</svg>
