<svg width="188" height="182" viewBox="0 0 188 182" fill="none" xmlns="http://www.w3.org/2000/svg">
<g clip-path="url(#clip0_53_799)">
<path opacity="0.18" d="M42.3497 22.7514C32.4475 26.714 21.8577 29.4344 13.1311 35.5654C4.40446 41.6964 -2.19498 52.572 0.681148 62.8373C2.91268 70.7871 10.3532 77.0039 10.6908 85.2542C10.9609 91.8391 6.60223 97.5897 4.28782 103.761C-0.38704 116.228 3.6555 130.75 11.9278 141.178C20.2001 151.606 32.1252 158.544 44.3418 163.856C73.2934 176.405 105.024 181.18 136.39 177.706C145.74 176.657 155.173 174.817 163.46 170.37C171.748 165.923 178.835 158.553 181.153 149.444C184.305 137.068 178.409 123.712 181.632 111.355C182.893 106.509 185.508 102.083 186.623 97.2002C189.302 85.4321 182.774 73.4124 174.467 64.653C166.161 55.8936 155.909 49.0357 148.315 39.6507C143.054 33.1517 139.199 25.5914 133.79 19.2151C123.164 6.67714 106.002 -0.726646 89.5373 0.0585109C73.1799 0.834467 57.7801 16.5775 42.3497 22.7514Z" fill="#68E1FD"/>
<path d="M140.234 11.5135H47.0034C41.0666 11.5135 36.254 16.3223 36.254 22.2543V154.657C36.254 160.589 41.0666 165.398 47.0034 165.398H140.234C146.17 165.398 150.983 160.589 150.983 154.657V22.2543C150.983 16.3223 146.17 11.5135 140.234 11.5135Z" fill="#68E1FD"/>
<path d="M140.234 11.5135H47.0034C41.0666 11.5135 36.254 16.3223 36.254 22.2543V154.657C36.254 160.589 41.0666 165.398 47.0034 165.398H140.234C146.17 165.398 150.983 160.589 150.983 154.657V22.2543C150.983 16.3223 146.17 11.5135 140.234 11.5135Z" fill="url(#paint0_linear_53_799)"/>
<path d="M94.7066 116.255L34.9187 115.878C32.6523 115.867 30.474 116.755 28.8624 118.347C27.2509 119.94 26.3379 122.106 26.3241 124.371L26.2689 133.173C26.2616 134.296 26.4756 135.409 26.8989 136.448C27.3221 137.488 27.9461 138.435 28.7354 139.234C29.5246 140.032 30.4636 140.668 31.4988 141.104C32.5339 141.541 33.6449 141.769 34.7683 141.776L91.4529 142.129C95.1988 142.154 98.7899 143.626 101.475 146.236L103.062 147.769L103.151 133.661L103.172 130.287L103.206 124.852C103.213 123.73 102.999 122.618 102.575 121.578C102.152 120.539 101.528 119.593 100.738 118.795C99.949 117.997 99.0102 117.361 97.9752 116.926C96.9403 116.49 95.8296 116.262 94.7066 116.255Z" fill="url(#paint1_linear_53_799)"/>
<path d="M143.334 29.2104V150.928C143.333 153.456 142.328 155.88 140.539 157.668C138.75 159.455 136.324 160.46 133.794 160.46H54.0786C52.8259 160.46 51.5855 160.214 50.4282 159.735C49.271 159.256 48.2195 158.553 47.3339 157.668C46.4482 156.783 45.7458 155.732 45.2667 154.576C44.7876 153.419 44.5412 152.18 44.5416 150.928V29.2104C44.5412 27.9587 44.7876 26.7193 45.2667 25.5628C45.7458 24.4063 46.4482 23.3554 47.3339 22.4702C48.2195 21.585 49.271 20.8828 50.4282 20.4038C51.5855 19.9247 52.8259 19.6781 54.0786 19.6781H133.794C136.324 19.6789 138.75 20.6835 140.539 22.4709C142.328 24.2584 143.333 26.6825 143.334 29.2104Z" fill="#68E1FD"/>
<path opacity="0.69" d="M143.334 29.2104V150.928C143.333 153.456 142.328 155.88 140.539 157.668C138.75 159.455 136.324 160.46 133.794 160.46H54.0786C52.8259 160.46 51.5855 160.214 50.4282 159.735C49.271 159.256 48.2195 158.553 47.3339 157.668C46.4482 156.783 45.7458 155.732 45.2667 154.576C44.7876 153.419 44.5412 152.18 44.5416 150.928V29.2104C44.5412 27.9587 44.7876 26.7193 45.2667 25.5628C45.7458 24.4063 46.4482 23.3554 47.3339 22.4702C48.2195 21.585 49.271 20.8828 50.4282 20.4038C51.5855 19.9247 52.8259 19.6781 54.0786 19.6781H133.794C136.324 19.6789 138.75 20.6835 140.539 22.4709C142.328 24.2584 143.333 26.6825 143.334 29.2104Z" fill="url(#paint2_linear_53_799)"/>
<path d="M165.704 83.8554V91.6334C165.71 92.6207 165.521 93.5994 165.148 94.5137C164.775 95.4279 164.225 96.2597 163.53 96.9615C162.835 97.6633 162.008 98.2214 161.097 98.6039C160.186 98.9864 159.209 99.1857 158.221 99.1905H108.618C107.678 99.1875 106.741 99.2903 105.824 99.4972C103.565 100.013 101.49 101.138 99.8265 102.751L98.433 104.098V83.8554C98.4284 82.2586 98.9312 80.7015 99.8689 79.4084C100.807 78.1154 102.131 77.1531 103.651 76.6602C104.386 76.4242 105.154 76.3042 105.926 76.3044H158.23C160.223 76.3166 162.13 77.1187 163.531 78.5345C164.932 79.9504 165.714 81.8641 165.704 83.8554Z" fill="url(#paint3_linear_53_799)"/>
<path d="M84.657 47.0941L85.9309 66.8089H84.657L83.288 65.4932C80.9613 63.2635 77.4191 62.466 74.1992 62.466H25.4309C23.4771 62.466 21.6033 61.6905 20.2218 60.3101C18.8402 58.9297 18.0641 57.0574 18.0641 55.1052L18.5214 47.0941C18.5214 45.1419 19.2976 43.2696 20.6791 41.8892C22.0607 40.5088 23.9344 39.7333 25.8882 39.7333H77.3025C78.5019 39.7325 79.6833 40.0253 80.7434 40.5862C81.8034 41.147 82.7097 41.9588 83.3832 42.9506C84.2175 44.1712 84.6617 45.616 84.657 47.0941Z" fill="url(#paint4_linear_53_799)"/>
<path d="M85.9309 47.0941V66.8089L84.5588 65.4932C82.2362 63.2646 79.1413 62.0195 75.9212 62.0182H27.1498C25.196 62.0182 23.3222 61.2427 21.9407 59.8623C20.5591 58.4819 19.783 56.6096 19.783 54.6574V47.0941C19.783 45.1419 20.5591 43.2696 21.9407 41.8892C23.3222 40.5088 25.196 39.7333 27.1498 39.7333H78.5733C79.7732 39.7325 80.955 40.0253 82.0155 40.5862C83.076 41.147 83.9829 41.9588 84.657 42.9506C85.4914 44.1712 85.9356 45.616 85.9309 47.0941ZM165.704 83.2236V90.7961C165.704 92.7483 164.928 94.6206 163.547 96.001C162.165 97.3814 160.291 98.1569 158.338 98.1569H109.578C106.357 98.158 103.261 99.4031 100.938 101.632L99.5564 102.938V83.2236C99.5544 82.2564 99.7436 81.2983 100.113 80.4043C100.483 79.5104 101.025 78.6981 101.71 78.0142C102.394 77.3303 103.207 76.7882 104.102 76.419C104.996 76.0498 105.955 75.8607 106.923 75.8628H158.347C160.299 75.8652 162.17 76.6418 163.55 78.022C164.929 79.4021 165.704 81.273 165.704 83.2236Z" fill="white"/>
<path d="M111.761 74.3662C111.454 73.7528 110.963 73.2866 110.662 72.6916C110.017 71.4219 110.395 69.8454 111.156 68.6431C111.463 68.1432 111.862 67.6617 111.976 67.082C112.108 66.4012 111.844 65.6589 112.129 65.0271C112.362 64.518 112.89 64.2236 113.357 63.8985C114.066 63.3924 114.68 62.7299 115.481 62.3926C116.282 62.0552 117.393 62.1779 117.786 62.9569C118.526 62.5919 119.462 62.9232 120.015 63.5304C120.567 64.1377 120.813 64.9658 120.982 65.7694C121.125 66.6915 121.336 67.6018 121.614 68.4929C121.939 69.367 122.51 70.1981 123.354 70.5938C124.993 71.3605 127.277 70.3668 128.572 71.6427C129.235 72.3021 129.472 73.4676 130.371 73.7191C130.835 73.8479 131.338 73.6792 131.799 73.8019C132.594 74.0166 132.922 74.9765 132.94 75.7985C132.954 76.6044 132.801 77.4044 132.491 78.1485C132.181 78.8926 131.721 79.5648 131.139 80.123C130.568 80.6659 129.837 81.1719 129.72 81.9632C129.707 82.3641 129.738 82.7653 129.813 83.1594C129.856 83.6895 129.746 84.221 129.494 84.6899C129.243 85.1589 128.861 85.5452 128.395 85.8025C127.929 86.0597 127.399 86.177 126.868 86.1401C126.337 86.1032 125.828 85.9138 125.402 85.5946C124.751 85.11 124.201 84.2972 123.391 84.334C123.036 84.3825 122.699 84.5173 122.409 84.7266C121.77 85.1618 121.064 85.4883 120.319 85.6927C119.945 85.7912 119.552 85.7974 119.175 85.7109C118.798 85.6243 118.448 85.4476 118.155 85.1959C117.694 84.745 117.522 84.0887 117.298 83.4814C116.936 82.4999 116.276 81.4909 115.248 81.2946C114.806 81.2118 114.348 81.2946 113.906 81.221C110.914 80.7395 112.672 76.2034 111.761 74.3662Z" fill="#3F3D56"/>
<path d="M135.752 64.0578C136.497 62.8705 137.06 61.5782 137.422 60.224C137.579 59.6561 137.839 59.1218 138.189 58.6476C138.224 58.6 138.273 58.5651 138.329 58.5484C138.386 58.5316 138.446 58.5339 138.501 58.5548C138.556 58.5758 138.602 58.6143 138.633 58.6644C138.664 58.7144 138.677 58.7732 138.671 58.8316L138.548 60.0584C139.162 59.3469 139.89 58.0434 140.918 56.9607C140.943 56.9373 140.974 56.9228 141.008 56.9196C141.042 56.9164 141.076 56.9247 141.104 56.9432C141.133 56.9617 141.154 56.9892 141.165 57.0214C141.175 57.0535 141.175 57.0883 141.164 57.1202L140.335 59.2027C140.329 59.2208 140.33 59.2404 140.337 59.258C140.344 59.2757 140.357 59.2905 140.373 59.2998C140.39 59.3092 140.409 59.3125 140.428 59.3094C140.446 59.3062 140.463 59.2967 140.476 59.2825L141.704 57.6293C142.37 57.1509 142.293 57.8532 142.232 58.0189L141.431 59.5524C141.421 59.5735 141.42 59.597 141.426 59.6192C141.432 59.6414 141.445 59.6609 141.464 59.6745C141.482 59.6881 141.505 59.6949 141.528 59.6939C141.551 59.6929 141.573 59.6841 141.59 59.6689C141.94 59.3256 142.312 59.0059 142.704 58.712C142.753 58.6797 142.81 58.6645 142.868 58.669C142.926 58.6735 142.981 58.6974 143.023 58.7367C143.066 58.7761 143.094 58.8287 143.103 58.886C143.112 58.9433 143.101 59.0019 143.073 59.0524L141.845 60.7669C141.698 60.9724 141.572 61.092 141.824 61.0736L142.708 60.7485C142.972 60.6442 142.846 61.2484 142.615 61.411C141.329 62.3311 140.808 63.0488 139.917 63.8125C139.027 64.5761 133.315 73.9888 130.709 77.3257C129.76 78.5372 127.946 79.3438 127.213 77.3932C126.663 75.9149 128.348 74.5317 129.159 73.4613C131.481 70.4229 133.679 67.2884 135.752 64.0578Z" fill="url(#paint5_linear_53_799)"/>
<path d="M95.9436 116.255L36.1557 115.878C33.8893 115.867 31.711 116.755 30.0994 118.347C28.4879 119.94 27.5749 122.106 27.5611 124.371L27.5059 133.173C27.4986 134.296 27.7126 135.409 28.1359 136.448C28.5591 137.488 29.1831 138.435 29.9724 139.234C30.7616 140.032 31.7006 140.668 32.7358 141.104C33.7709 141.541 34.8819 141.769 36.0053 141.776L92.6899 142.129C96.4358 142.154 100.027 143.626 102.712 146.236L104.299 147.769L104.388 133.661L104.409 130.287L104.443 124.852C104.45 123.73 104.236 122.618 103.812 121.578C103.389 120.539 102.765 119.593 101.975 118.795C101.186 117.997 100.247 117.361 99.2122 116.926C98.1773 116.49 97.0666 116.262 95.9436 116.255Z" fill="white"/>
<path d="M104.885 15.5713H85.4183C84.9131 15.5713 84.5036 15.9805 84.5036 16.4853C84.5036 16.99 84.9131 17.3992 85.4183 17.3992H104.885C105.39 17.3992 105.8 16.99 105.8 16.4853C105.8 15.9805 105.39 15.5713 104.885 15.5713Z" fill="url(#paint6_linear_53_799)"/>
<path d="M85.2771 47.5787C83.6564 48.278 83.3709 48.1676 81.6366 48.4712C79.9023 48.7748 78.5456 48.554 76.8942 47.9375C75.7616 51.391 74.5583 55.1634 74.2514 58.7825C74.15 59.8717 73.9746 60.9528 73.7265 62.0182H63.2902C63.2595 61.7851 63.2319 61.5459 63.2073 61.2975C62.9322 57.9654 62.9702 54.6148 63.3209 51.2898C63.3487 51.0863 63.3661 50.8816 63.3731 50.6764C63.3808 50.5089 63.3684 50.341 63.3362 50.1765C63.2462 49.8227 63.0989 49.486 62.9003 49.1797C62.486 48.4528 61.4853 47.3395 60.9297 46.5328C60.8561 46.4224 60.7885 46.3182 60.7333 46.2261C61.0679 44.6926 62.5443 43.9412 63.2319 42.5457C63.7424 41.4789 64.4663 40.528 65.359 39.7517C65.6459 39.5079 65.9541 39.2902 66.2799 39.1015C67.4586 38.4175 68.8184 38.1445 70.1751 37.9391C70.3869 37.9053 70.5956 37.8746 70.8074 37.847C71.6771 38.4816 72.7125 38.8503 73.7879 38.9082C74.1267 38.9006 74.4651 38.9367 74.7947 39.0156C75.0735 39.1226 75.3343 39.2716 75.5682 39.4572L75.9795 39.7639C76.7346 40.3007 77.4897 40.8435 78.2448 41.3833C78.7689 41.7805 79.3266 42.1315 79.9116 42.4322C81.8054 43.3278 82.5882 43.245 84.6693 42.9812C84.9118 44.2909 85.1574 46.2261 85.2771 47.5787Z" fill="#68E1FD"/>
<path d="M70.1597 37.8501C69.6164 38.35 71.1972 40.0768 71.7712 40.5429C72.3452 41.0091 73.217 41.0061 73.9444 40.7914C74.4294 40.6503 74.9451 40.3773 75.0771 39.8866C75.1215 39.5372 75.089 39.1824 74.9819 38.8469C74.8499 38.1261 74.9819 37.3686 74.7855 36.657C74.5649 35.9393 74.1181 35.3121 73.5116 34.869C72.9438 34.4242 71.4121 33.2434 71.0959 34.4242C70.7521 35.6817 71.4305 36.6724 70.1597 37.8501Z" fill="url(#paint7_linear_53_799)"/>
<path d="M70.0369 62.0182H63.591C63.472 61.7711 63.3399 61.5305 63.195 61.2975C63.1645 61.2495 63.1284 61.2052 63.0876 61.1656C62.8047 60.868 62.6084 60.499 62.5197 60.0983C61.6911 57.2413 61.826 54.1914 62.9034 51.4186C63.0027 51.1404 63.1584 50.8856 63.3608 50.6703C63.6923 50.3176 64.0667 50.1458 64.4197 49.4956C65.1165 48.2166 66.4456 46.036 67.1025 44.7386C67.3634 47.2567 66.3842 49.5907 66.4886 52.1179C66.5408 53.5901 66.596 55.0868 67.1025 56.4731C67.524 57.6165 68.1878 58.6554 69.0486 59.5186C69.3831 59.8836 69.8681 61.0889 70.0369 62.0182Z" fill="url(#paint8_linear_53_799)"/>
<path d="M84.657 42.9596C84.657 42.9596 85.2003 46.9192 85.1788 46.6922C85.1573 46.4653 92.9293 44.349 95.1486 36.9974C95.3179 36.7525 95.5251 36.5361 95.7625 36.3564C98.5251 34.2953 98.9548 33.4273 98.1291 33.9334C97.7016 34.2266 97.1837 34.3582 96.668 34.3045C96.9726 34.0487 97.2549 33.7675 97.5121 33.4642C97.8375 33.0685 98.5496 32.6606 98.7246 32.1821C98.7497 32.1286 98.7603 32.0693 98.7553 32.0104C98.7391 31.9554 98.7041 31.9078 98.6565 31.8758C98.6088 31.8439 98.5514 31.8297 98.4944 31.8356C98.3835 31.8507 98.2781 31.8928 98.1874 31.9582C97.7722 32.2162 97.3744 32.501 96.9964 32.8109C96.7601 33.0041 96.1093 33.2648 96.3334 32.8109C96.6833 32.0901 97.4599 31.6117 97.6656 30.8388C97.6829 30.7958 97.6902 30.7495 97.687 30.7033C97.6838 30.657 97.6702 30.6122 97.6472 30.572C97.5674 30.4738 97.4077 30.5045 97.2911 30.5566C96.8706 30.7468 95.6029 32.4858 95.2929 32.4459C94.9828 32.406 95.6274 30.5873 95.652 30.2376C95.652 30.1426 95.652 30.0291 95.5691 29.9831C95.4862 29.9371 95.3849 29.9831 95.3113 30.0536C94.5009 30.7222 94.3904 31.9092 93.8686 32.8139C93.7992 32.9693 93.6729 33.0922 93.5156 33.1574C93.181 33.2556 92.9017 32.8753 92.561 32.7986C92.5004 32.7771 92.4343 32.7771 92.3738 32.7986C92.1865 32.8814 92.2141 33.1728 92.3277 33.3445C93.8594 35.7031 89.9519 41.3249 84.657 42.9596Z" fill="url(#paint9_linear_53_799)"/>
<path d="M61.8015 46.9653C61.8015 46.9653 60.19 59.9266 61.4239 62.0183H64.1036C63.5554 57.8534 63.659 53.6287 64.4106 49.4956C64.4106 49.4956 64.1742 47.4561 61.8015 46.9653Z" fill="url(#paint10_linear_53_799)"/>
<path opacity="0.32" d="M53.4892 46.2139H25.3418C24.3891 46.2139 23.6168 46.9856 23.6168 47.9375V47.9406C23.6168 48.8926 24.3891 49.6643 25.3418 49.6643H53.4892C54.4419 49.6643 55.2143 48.8926 55.2143 47.9406V47.9375C55.2143 46.9856 54.4419 46.2139 53.4892 46.2139Z" fill="#68E1FD"/>
<path opacity="0.32" d="M53.4892 53.2772H25.3418C24.3891 53.2772 23.6168 54.0489 23.6168 55.0009V55.004C23.6168 55.9559 24.3891 56.7276 25.3418 56.7276H53.4892C54.4419 56.7276 55.2143 55.9559 55.2143 55.004V55.0009C55.2143 54.0489 54.4419 53.2772 53.4892 53.2772Z" fill="#68E1FD"/>
<path opacity="0.32" d="M159.32 84.5239H131.172C130.715 84.5239 130.275 84.3424 129.951 84.0192C129.627 83.696 129.445 83.2576 129.444 82.8002C129.444 82.5736 129.489 82.3492 129.576 82.1399C129.663 81.9306 129.79 81.7404 129.951 81.5803C130.111 81.4202 130.302 81.2933 130.511 81.2069C130.721 81.1204 130.946 81.0761 131.172 81.0765H159.32C159.546 81.0765 159.771 81.1211 159.98 81.2077C160.189 81.2944 160.379 81.4213 160.54 81.5814C160.7 81.7414 160.827 81.9315 160.914 82.1406C161 82.3497 161.045 82.5738 161.045 82.8002C161.045 83.2573 160.863 83.6958 160.54 84.019C160.216 84.3423 159.777 84.5239 159.32 84.5239ZM159.32 91.5872H131.172C130.715 91.5872 130.275 91.4057 129.951 91.0826C129.627 90.7594 129.445 90.321 129.444 89.8636C129.447 89.4075 129.63 88.9709 129.954 88.6496C130.278 88.3282 130.716 88.1483 131.172 88.1491H159.32C159.777 88.1491 160.216 88.3307 160.54 88.6539C160.863 88.9772 161.045 89.4156 161.045 89.8728C161.042 90.3283 160.86 90.7644 160.536 91.0856C160.213 91.4069 159.776 91.5872 159.32 91.5872ZM80.0405 124.981H51.8962C51.4384 124.981 50.9993 124.799 50.6753 124.476C50.3513 124.153 50.1689 123.715 50.1681 123.257C50.1681 122.799 50.3501 122.36 50.6742 122.036C50.9983 121.712 51.4379 121.531 51.8962 121.531H80.0405C80.2673 121.531 80.4919 121.575 80.7014 121.662C80.9109 121.749 81.1012 121.876 81.2614 122.036C81.4216 122.197 81.5486 122.387 81.6351 122.597C81.7217 122.806 81.766 123.031 81.7656 123.257C81.7656 123.714 81.5838 124.153 81.2603 124.476C80.9368 124.799 80.498 124.981 80.0405 124.981Z" fill="#68E1FD"/>
<path opacity="0.32" d="M80.0436 129.413H51.8962C50.9435 129.413 50.1711 130.185 50.1711 131.137V131.14C50.1711 132.092 50.9435 132.863 51.8962 132.863H80.0436C80.9963 132.863 81.7686 132.092 81.7686 131.14V131.137C81.7686 130.185 80.9963 129.413 80.0436 129.413Z" fill="#68E1FD"/>
<path d="M129.331 78.5954C129.124 79.1743 128.777 79.6928 128.321 80.1044C127.464 80.8865 126.378 81.3772 125.534 82.1716C123.661 83.932 123.351 86.7445 123.155 89.3054L122.483 98.1477H109.591C108.666 98.1478 107.745 98.2506 106.843 98.4544C107.009 96.0825 107.152 93.7107 107.273 91.3389C107.5 86.8825 107.51 81.9814 104.667 78.5371C104.372 78.2572 104.169 77.8948 104.084 77.4974C104.047 77.0404 104.357 76.6356 104.649 76.2706C104.667 76.2522 104.679 76.2338 104.698 76.2123L106.595 73.8967C106.825 73.6146 107.098 73.3109 107.46 73.2833C107.773 73.303 108.066 73.4412 108.28 73.6698C109.011 74.3343 109.677 75.0665 110.269 75.8566C110.659 76.3473 111.039 76.8441 111.445 77.3226C113.357 79.5799 116.276 81.1686 119.032 79.3591C120.927 78.0761 122.9 76.9145 124.941 75.8811C125.892 75.4204 126.866 75.0108 127.86 74.6543C127.802 75.1297 128.057 75.5161 128.373 75.8811C128.712 76.2274 129.011 76.6112 129.263 77.0251C129.493 77.519 129.517 78.0837 129.331 78.5954Z" fill="#68E1FD"/>
<path d="M106.85 76.1081C107.443 75.054 107.639 73.8223 107.402 72.6362C107.164 71.4629 106.787 70.3221 106.279 69.238C105.198 66.6801 104.12 64.1242 103.043 61.5704C102.752 60.9453 102.527 60.2916 102.371 59.6198C102.147 58.4727 102.328 57.2889 102.509 56.1357C102.304 56.078 102.085 56.0999 101.895 56.197C101.924 56.5072 101.859 56.8189 101.709 57.0921C101.56 57.3654 101.331 57.5877 101.054 57.7305C100.769 56.5784 100.246 55.4984 99.5196 54.5592C99.5994 55.4159 99.6587 56.2747 99.6976 57.1355C99.0223 56.4424 98.345 55.7513 97.6656 55.0622C97.1407 55.9823 99.0285 56.9607 98.5864 57.9299L96.358 56.3258C96.1953 57.4177 97.9633 57.9329 98.0585 59.0371L96.4593 58.2918C96.7969 59.1168 97.5796 59.6535 98.1997 60.2976C100.477 62.6929 100.477 66.401 101.902 69.379C102.718 71.0935 103.593 72.4951 103.961 74.3691C104.237 75.7768 105.45 78.3562 106.85 76.1081Z" fill="url(#paint11_linear_53_799)"/>
<path d="M59.4709 93.1052C60.7023 92.592 61.2842 91.1787 60.7706 89.9483C60.257 88.718 58.8425 88.1366 57.6111 88.6497C56.3798 89.1629 55.7979 90.5763 56.3115 91.8066C56.825 93.037 58.2396 93.6183 59.4709 93.1052Z" fill="#68E1FD"/>
<path d="M66.8951 93.1057C68.1264 92.5925 68.7083 91.1791 68.1947 89.9488C67.6812 88.7184 66.2666 88.137 65.0353 88.6502C63.8039 89.1634 63.2221 90.5767 63.7356 91.8071C64.2492 93.0374 65.6637 93.6188 66.8951 93.1057Z" fill="#68E1FD"/>
<path d="M74.3189 93.1052C75.5502 92.592 76.1321 91.1787 75.6185 89.9483C75.105 88.718 73.6904 88.1366 72.4591 88.6497C71.2277 89.1629 70.6459 90.5763 71.1594 91.8066C71.673 93.037 73.0875 93.6184 74.3189 93.1052Z" fill="#68E1FD"/>
<path d="M117.94 134.24C119.274 134.24 120.355 133.16 120.355 131.827C120.355 130.494 119.274 129.413 117.94 129.413C116.606 129.413 115.524 130.494 115.524 131.827C115.524 133.16 116.606 134.24 117.94 134.24Z" fill="#68E1FD"/>
<path d="M125.362 134.24C126.696 134.24 127.777 133.16 127.777 131.827C127.777 130.494 126.696 129.413 125.362 129.413C124.028 129.413 122.946 130.494 122.946 131.827C122.946 133.16 124.028 134.24 125.362 134.24Z" fill="#68E1FD"/>
<path d="M132.784 134.24C134.118 134.24 135.2 133.16 135.2 131.827C135.2 130.494 134.118 129.413 132.784 129.413C131.45 129.413 130.368 130.494 130.368 131.827C130.368 133.16 131.45 134.24 132.784 134.24Z" fill="#68E1FD"/>
<path d="M108.099 52.0749C109.433 52.0749 110.515 50.9943 110.515 49.6612C110.515 48.3281 109.433 47.2474 108.099 47.2474C106.765 47.2474 105.683 48.3281 105.683 49.6612C105.683 50.9943 106.765 52.0749 108.099 52.0749Z" fill="#68E1FD"/>
<path d="M115.524 52.0749C116.858 52.0749 117.94 50.9943 117.94 49.6612C117.94 48.3281 116.858 47.2474 115.524 47.2474C114.19 47.2474 113.108 48.3281 113.108 49.6612C113.108 50.9943 114.19 52.0749 115.524 52.0749Z" fill="#68E1FD"/>
<path d="M122.946 52.0749C124.28 52.0749 125.362 50.9943 125.362 49.6612C125.362 48.3281 124.28 47.2474 122.946 47.2474C121.612 47.2474 120.53 48.3281 120.53 49.6612C120.53 50.9943 121.612 52.0749 122.946 52.0749Z" fill="#68E1FD"/>
<path opacity="0.19" d="M36.7696 165.812L37.2393 167.941C34.1882 170.152 30.2807 170.679 26.6096 171.529C22.9384 172.379 19.0463 173.854 17.1524 177.108C19.8812 180.641 24.9643 181.067 29.4304 181.184C65.446 182.123 101.479 182.251 137.529 181.57C148.966 181.353 160.468 181.049 171.693 178.85C172.497 178.694 173.397 178.46 173.799 177.746C174.486 176.519 173.185 175.148 171.997 174.43C168.056 172.073 163.541 170.849 158.948 170.894C157.223 170.916 154.958 170.732 154.562 169.054C154.427 168.456 154.611 167.827 154.59 167.214C154.541 165.696 153.224 164.453 151.778 163.993C150.332 163.533 148.767 163.687 147.254 163.825C118.735 166.566 90.0524 167.208 61.4393 165.745C56.9025 165.512 52.3597 165.229 47.8536 164.653C43.6238 164.119 40.5635 163.291 36.7696 165.812Z" fill="url(#paint12_linear_53_799)"/>
<path d="M79.4481 34.2862C79.1166 35.4394 78.5702 36.5742 77.6463 37.3532C77.0129 37.8815 76.2366 38.2096 75.4161 38.2959C74.5956 38.3821 73.7679 38.2226 73.0384 37.8376C72.3089 37.4526 71.7104 36.8595 71.3192 36.1337C70.9279 35.4079 70.7615 34.5823 70.8412 33.7617C70.8412 33.6667 70.8412 33.5501 70.7737 33.4949C70.7018 33.4717 70.6245 33.4717 70.5526 33.4949C70.1014 33.5409 69.7669 33.0747 69.6318 32.6454C69.5094 32.3205 69.4786 31.9683 69.5428 31.6271C69.5772 31.4581 69.6558 31.3012 69.7706 31.1724C69.8855 31.0436 70.0325 30.9476 70.1966 30.8941C70.363 30.8485 70.5406 30.8686 70.6926 30.9503C70.8446 31.0319 70.9593 31.1688 71.0131 31.3327C71.0766 30.6944 71.2867 30.0793 71.627 29.5354C71.9707 28.8262 72.4361 28.1826 73.0021 27.6338C73.6085 27.1241 74.3427 26.7895 75.1255 26.6662C75.9082 26.543 76.7098 26.6358 77.4437 26.9346C78.0955 27.2037 78.6822 27.6089 79.1645 28.123C79.6468 28.6372 80.0135 29.2484 80.24 29.9157C80.418 30.5291 80.1571 31.0597 80.0374 31.6578C79.8379 32.5227 79.6998 33.4152 79.4481 34.2862Z" fill="url(#paint13_linear_53_799)"/>
<path d="M71.2279 31.9123C71.2095 31.9369 71.186 31.9574 71.159 31.9722C71.132 31.987 71.1021 31.9959 71.0714 31.9981C70.9517 31.9981 70.921 31.8325 70.9118 31.716C70.9177 31.4305 70.8132 31.1536 70.6202 30.9431C70.5708 30.8937 70.5122 30.8544 70.4477 30.8277C70.3832 30.8009 70.314 30.7871 70.2442 30.7871C70.1743 30.7871 70.1051 30.8009 70.0406 30.8277C69.9761 30.8544 69.9175 30.8937 69.8681 30.9431C69.6661 29.5946 69.9535 28.2184 70.6785 27.0633C70.7661 26.9517 70.8242 26.8199 70.8473 26.6799C70.8473 26.499 70.743 26.3211 70.7767 26.1432C70.8164 26.0145 70.8946 25.9011 71.0008 25.8181C71.3177 25.4871 71.7018 25.2277 72.1273 25.0575C72.3403 24.9738 72.5705 24.9435 72.7979 24.9692C73.0253 24.9948 73.2429 25.0757 73.4318 25.2047C74.4105 24.6296 75.5226 24.3198 76.6579 24.306C77.3175 24.2916 77.9738 24.403 78.5917 24.6342C79.7052 25.0963 80.6061 25.9571 81.1179 27.048C81.6186 28.1376 81.8006 29.3466 81.6428 30.5352C80.6464 30.9837 79.5137 31.0243 78.4878 30.6482C77.4618 30.2721 76.6241 29.5092 76.1545 28.5232C76.0653 29.0041 76.1176 29.5006 76.3049 29.9524C75.9305 29.7679 75.6046 29.4985 75.353 29.1657C75.1014 28.8328 74.9313 28.4458 74.8561 28.0355C74.6259 27.8209 74.276 28.0938 74.0857 28.3422C73.5945 28.9894 73.1402 29.75 72.5509 30.3051C72.2845 30.4994 72.0387 30.7203 71.8173 30.9645C71.5871 31.2651 71.4888 31.6362 71.2279 31.9123Z" fill="#3F3D56"/>
<path d="M118.603 79.4818C118.495 80.3375 117.697 81.0736 116.829 81.2821C116.609 81.3415 116.38 81.3602 116.153 81.3373C114.925 81.2116 114.367 79.6965 114.391 78.4605C114.416 77.2245 114.698 75.9639 114.134 74.9119C114.118 74.8782 114.1 74.8444 114.081 74.8107C113.774 74.2678 113.237 73.863 112.964 73.2956C112.713 72.6544 112.657 71.9533 112.804 71.2806C113.17 68.7165 115.18 61.9415 119.054 64.4779C120.058 65.1343 120.656 66.2691 121 67.4161C122.216 71.4585 119.619 71.391 118.603 79.4818Z" fill="url(#paint14_linear_53_799)"/>
<path d="M117.519 65.3061C118.038 65.6128 118.296 66.2262 118.412 66.8396C118.747 68.5418 118.204 70.2777 117.9 71.986C117.596 73.6944 117.593 75.6665 118.793 76.9239L118.821 76.9546C119.104 77.2429 119.454 77.4568 119.84 77.5773C120.226 77.6978 120.636 77.7212 121.034 77.6453C121.431 77.5694 121.803 77.3967 122.118 77.1424C122.432 76.8882 122.679 76.5603 122.836 76.1879C122.894 76.056 122.961 75.9272 123.032 75.8014C123.499 74.9764 124.149 74.2679 124.613 73.4398C124.989 72.743 125.25 71.9901 125.386 71.2101C125.557 70.4151 125.562 69.5935 125.402 68.7963C125.095 67.4591 124.174 66.3427 123.21 65.3889C122.289 64.4688 121.267 63.6315 120.048 63.2082C118.83 62.785 117.375 62.8525 116.365 63.6468C116.058 63.8922 115.214 64.889 115.653 65.303C116.012 65.6312 116.976 64.9748 117.519 65.3061Z" fill="#3F3D56"/>
<path d="M62.1207 46.9653L60.721 46.2139L61.7309 47.5971L61.8045 46.9653H62.1207Z" fill="url(#paint15_linear_53_799)"/>
<path d="M76.8942 47.9375C76.938 47.5855 77.1138 47.2631 77.386 47.0354C77.6583 46.8078 78.0069 46.6917 78.3615 46.7107C79.7366 46.6709 85.0714 45.9685 85.0714 45.9685L85.2771 47.5879C85.2771 47.5879 80.5592 49.5815 76.8942 47.9375Z" fill="url(#paint16_linear_53_799)"/>
<path opacity="0.18" d="M84.657 42.9598V43.6775C84.657 43.6775 79.9944 44.9319 75.074 39.8774L74.7824 39.0095C75.0612 39.1165 75.3221 39.2655 75.5559 39.4511L75.9672 39.7578C76.7223 40.2945 77.4774 40.8374 78.2325 41.3772C78.7567 41.7744 79.3144 42.1254 79.8993 42.4261C81.7932 43.3217 82.5759 43.2389 84.657 42.9751V42.9598ZM70.4145 39.0064C70.4145 39.0064 65.5678 38.7702 63.2656 44.2909C62.7714 45.4686 61.5559 46.6709 61.5559 46.6709L60.9175 46.5359C60.8438 46.4255 60.7763 46.3212 60.721 46.2292C61.0556 44.6957 62.532 43.9443 63.2196 42.5488C63.7301 41.482 64.4541 40.5311 65.3467 39.7547C65.6336 39.5109 65.9418 39.2933 66.2676 39.1045C67.4463 38.4206 68.8061 38.1476 70.1628 37.9421L70.4145 39.0064Z" fill="white"/>
<path d="M129.331 78.5955C129.124 79.1744 128.777 79.6929 128.321 80.1045C127.464 80.8865 126.378 81.3773 125.534 82.1716C123.661 83.9321 123.351 86.7446 123.155 89.3055L122.483 98.1477H112.731C112.731 98.1477 118.038 87.3764 119.484 84.524C120.929 81.6717 125.349 79.7947 125.349 79.7947C128.793 77.1233 129.331 78.5955 129.331 78.5955Z" fill="url(#paint17_linear_53_799)"/>
<path d="M116.982 81.1318C116.938 81.1886 116.886 81.2391 116.829 81.282C116.609 81.3414 116.38 81.3601 116.153 81.3373C114.925 81.2115 114.367 79.6964 114.391 78.4604C114.416 77.2244 114.873 76.0313 113.848 74.4733C114.385 74.8628 115.097 75.1051 116.657 75.2063C117.783 75.2676 117.108 80.9723 116.982 81.1318Z" fill="url(#paint18_linear_53_799)"/>
</g>
<defs>
<linearGradient id="paint0_linear_53_799" x1="87.6406" y1="296.805" x2="94.0547" y2="72.8506" gradientUnits="userSpaceOnUse">
<stop offset="0.01"/>
<stop offset="1" stop-opacity="0"/>
</linearGradient>
<linearGradient id="paint1_linear_53_799" x1="63.2595" y1="110.026" x2="67.3384" y2="162.727" gradientUnits="userSpaceOnUse">
<stop offset="0.01"/>
<stop offset="1" stop-opacity="0"/>
</linearGradient>
<linearGradient id="paint2_linear_53_799" x1="94.7035" y1="248.416" x2="93.3858" y2="-24.2907" gradientUnits="userSpaceOnUse">
<stop offset="0.02" stop-color="white" stop-opacity="0"/>
<stop offset="0.58" stop-color="white" stop-opacity="0.39"/>
<stop offset="0.68" stop-color="white" stop-opacity="0.68"/>
<stop offset="1" stop-color="white"/>
</linearGradient>
<linearGradient id="paint3_linear_53_799" x1="133.745" y1="62.6317" x2="130.22" y2="115.517" gradientUnits="userSpaceOnUse">
<stop offset="0.01"/>
<stop offset="1" stop-opacity="0"/>
</linearGradient>
<linearGradient id="paint4_linear_53_799" x1="50.1527" y1="27.6707" x2="52.8801" y2="77.0438" gradientUnits="userSpaceOnUse">
<stop offset="0.01"/>
<stop offset="1" stop-opacity="0"/>
</linearGradient>
<linearGradient id="paint5_linear_53_799" x1="127.121" y1="67.7566" x2="143.119" y2="67.7566" gradientUnits="userSpaceOnUse">
<stop stop-color="#ECC4D7"/>
<stop offset="0.42" stop-color="#EFD4D1"/>
<stop offset="1" stop-color="#F2EAC9"/>
</linearGradient>
<linearGradient id="paint6_linear_53_799" x1="94.9767" y1="8.48034" x2="95.2525" y2="21.1165" gradientUnits="userSpaceOnUse">
<stop stop-color="#68E1FD"/>
<stop offset="1" stop-color="white"/>
</linearGradient>
<linearGradient id="paint7_linear_53_799" x1="70.878" y1="36.5343" x2="74.9309" y2="39.1443" gradientUnits="userSpaceOnUse">
<stop stop-color="#ECC4D7"/>
<stop offset="0.42" stop-color="#EFD4D1"/>
<stop offset="1" stop-color="#F2EAC9"/>
</linearGradient>
<linearGradient id="paint8_linear_53_799" x1="70.5587" y1="52.627" x2="46.6214" y2="61.6753" gradientUnits="userSpaceOnUse">
<stop stop-color="#68E1FD"/>
<stop offset="0.2" stop-color="#5DB4CF"/>
<stop offset="0.46" stop-color="#50819B"/>
<stop offset="0.69" stop-color="#475C76"/>
<stop offset="0.87" stop-color="#41455E"/>
<stop offset="0.99" stop-color="#3F3D56"/>
</linearGradient>
<linearGradient id="paint9_linear_53_799" x1="84.657" y1="38.3315" x2="98.7553" y2="38.3315" gradientUnits="userSpaceOnUse">
<stop stop-color="#ECC4D7"/>
<stop offset="0.42" stop-color="#EFD4D1"/>
<stop offset="1" stop-color="#F2EAC9"/>
</linearGradient>
<linearGradient id="paint10_linear_53_799" x1="60.9604" y1="54.4918" x2="64.4198" y2="54.4918" gradientUnits="userSpaceOnUse">
<stop stop-color="#ECC4D7"/>
<stop offset="0.42" stop-color="#EFD4D1"/>
<stop offset="1" stop-color="#F2EAC9"/>
</linearGradient>
<linearGradient id="paint11_linear_53_799" x1="96.3426" y1="65.7784" x2="107.488" y2="65.7784" gradientUnits="userSpaceOnUse">
<stop stop-color="#ECC4D7"/>
<stop offset="0.42" stop-color="#EFD4D1"/>
<stop offset="1" stop-color="#F2EAC9"/>
</linearGradient>
<linearGradient id="paint12_linear_53_799" x1="17.1524" y1="172.845" x2="173.989" y2="172.845" gradientUnits="userSpaceOnUse">
<stop stop-color="#183866"/>
<stop offset="1" stop-color="#1A7FC1"/>
</linearGradient>
<linearGradient id="paint13_linear_53_799" x1="74.4755" y1="28.6613" x2="75.9404" y2="37.4058" gradientUnits="userSpaceOnUse">
<stop offset="0.2" stop-color="#ECC4D7"/>
<stop offset="0.37" stop-color="#F0DCCE"/>
<stop offset="1" stop-color="#F2EAC9"/>
</linearGradient>
<linearGradient id="paint14_linear_53_799" x1="112.731" y1="72.6331" x2="121.316" y2="72.6331" gradientUnits="userSpaceOnUse">
<stop stop-color="#ECC4D7"/>
<stop offset="0.42" stop-color="#EFD4D1"/>
<stop offset="1" stop-color="#F2EAC9"/>
</linearGradient>
<linearGradient id="paint15_linear_53_799" x1="61.9887" y1="46.6187" x2="61.0128" y2="46.9873" gradientUnits="userSpaceOnUse">
<stop stop-color="#68E1FD"/>
<stop offset="0.2" stop-color="#5DB4CF"/>
<stop offset="0.46" stop-color="#50819B"/>
<stop offset="0.69" stop-color="#475C76"/>
<stop offset="0.87" stop-color="#41455E"/>
<stop offset="0.99" stop-color="#3F3D56"/>
</linearGradient>
<linearGradient id="paint16_linear_53_799" x1="81.5998" y1="45.6342" x2="78.0293" y2="60.2621" gradientUnits="userSpaceOnUse">
<stop stop-color="#68E1FD"/>
<stop offset="0.2" stop-color="#5DB4CF"/>
<stop offset="0.46" stop-color="#50819B"/>
<stop offset="0.69" stop-color="#475C76"/>
<stop offset="0.87" stop-color="#41455E"/>
<stop offset="0.99" stop-color="#3F3D56"/>
</linearGradient>
<linearGradient id="paint17_linear_53_799" x1="118.121" y1="86.717" x2="162.434" y2="110.958" gradientUnits="userSpaceOnUse">
<stop stop-opacity="0"/>
<stop offset="0.99"/>
</linearGradient>
<linearGradient id="paint18_linear_53_799" x1="118.824" y1="76.8594" x2="88.4272" y2="85.7517" gradientUnits="userSpaceOnUse">
<stop stop-color="#ECC4D7"/>
<stop offset="0.42" stop-color="#EFD4D1"/>
<stop offset="1" stop-color="#F2EAC9"/>
</linearGradient>
<clipPath id="clip0_53_799">
<rect width="187.234" height="182" fill="white"/>
</clipPath>
</defs>
</svg>
